<svg xmlns="http://www.w3.org/2000/svg" viewBox="0 0 462.13 117.82"><defs><style>.cls-1{font-size:61px;font-family:GillSans-UltraBold, Gill Sans Ultra Bold;font-weight:700;}.cls-1,.cls-4,.cls-9{fill:#f0659b;}.cls-1,.cls-4{stroke:#231f20;stroke-miterlimit:10;}.cls-2{letter-spacing:-0.02em;}.cls-3{fill:#a4ddec;}.cls-5{fill:#a46a28;}.cls-6,.cls-8{fill:#fff;}.cls-6{fill-rule:evenodd;}.cls-7{fill:none;stroke:#fff;stroke-linecap:round;stroke-linejoin:round;stroke-width:0.8px;}.cls-10{fill:#f0699e;}.cls-11{fill:#f0669b;}.cls-12{fill:#351327;}.cls-13{fill:#34132a;}</style></defs><g id="Layer_1" data-name="Layer 1"><text class="cls-1" transform="translate(109.53 92.81)"><tspan xml:space="preserve"> asy</tspan></text><text class="cls-1" transform="translate(308.81 92.87)">a<tspan class="cls-2" x="43.19" y="0">k</tspan><tspan x="89.89" y="0">e</tspan></text></g><g id="Layer_4" data-name="Layer 4"><g id="g10624"><path id="path5127" class="cls-3" d="M310.64,222.05c-3.43.15-6.72-2-9.24,1.11-2.69,2.93-3.86,9.33-3.75,13.12,0,12-.34,24,.11,35.9.36,3.23.42,6.95,2.57,9.4,14.19,8,43.91,1.85,48-15.58,1.37-5.5-1.57-10.68-5.36-14.51a13.36,13.36,0,0,0-3.42-1.71c2.51-3.76,5.47-7.85,5.12-12.63.05-4.38-2.33-8.26-5.09-11.16-4.28-4.2-10.5-5.07-16.26-4.57-4.23.15-8.47.39-12.71.63Zm6.78,16.35c16.17-2.5,5.57,7.47-.67,5.63-1,.08-1.67-.18-1.3-1.39.09-1.39.16-2.77.2-4.15l1.77-.09Zm9.38,21.46c2.64.68,2.13,4.92-.14,6-2.05,1.46-4.62.74-6.89,1.13a30.2,30.2,0,0,1-4.55.08c-.69-8.72,4.13-7.89,11.58-7.24Z" transform="translate(-40.27 -187.2)"/><path id="path4864" class="cls-4" d="M312.48,218.4c-3.5.15-7.54.25-10.11,3.39-2.74,3-3.23,7.25-3.13,11.11,0,12.2-.35,24.42.11,36.57.37,3.29.43,7.08,2.62,9.58,14.09,7.78,41,2.31,47-14.66,1.4-5.6.3-12.09-3.56-16a13.38,13.38,0,0,0-3.48-1.75c2.56-3.83,5.57-8,5.22-12.87,0-4.45-2.38-8.41-5.19-11.37-4.36-4.28-10.69-5.16-16.56-4.65-4.32.15-8.63.39-12.95.64Zm6.9,16.66c1.12-.18,2.11-.29,3-.35,12.06-.88,2.26,7.83-3.66,6.08-1.05.08-1.7-.18-1.32-1.41.21-2.54-.54-4.19,2-4.32Zm.64,21.69c3,0,6-.44,8.92.17,2.69.7,2.17,5-.14,6.15-2.09,1.48-4.71.75-7,1.14-5.5.13-6.69-7.44-1.75-7.46Z" transform="translate(-40.27 -187.2)"/><path id="path5122" class="cls-5" d="M318.07,218.09a1.58,1.58,0,0,0,.18,1.51c.52.52.81.31.33-.23s-.4-.51-.06-.53.58-.38.53-.8l-1,.05Zm11.92-.33c-.3,0-.74.31-.74.53s.28.28.75-.06c.2-.15.3-.33.22-.42A.28.28,0,0,0,330,217.76Zm-8.4.7c-.8,0-.86.1-.72.68s.05.64-.32.67a1.83,1.83,0,0,0-.84.31c-.28.22-.16.24.42.11s.87-.07,1,.08c.25.42.34.29.2-.28s.35-1.44.69-1.24a.27.27,0,0,0,.35-.12c.08-.14-.25-.24-.74-.21ZM307,221.6c-.21,0-.39.14-.39.29a.24.24,0,0,0,.24.26.6.6,0,0,0,.39-.29C307.36,221.71,307.26,221.59,307,221.6Zm2,0c-.15,0-.18.38-.12,1.18,0,.38-.09.6-.35.62s-.39.24-.39.55-.17.55-.38.56c-.42,0-.5-.53-.14-.95a.54.54,0,0,0,0-.64c-.17-.29-.3-.29-.57,0s-.43.26-.51.18-.38,0-.67.06c-.46.18-.39.29.67,1,.66.46,1.23.84,1.27.85a3.89,3.89,0,0,0,.8-.58,1.67,1.67,0,0,1,1.06-.5c.22.08.34-.11.35-.58a4.28,4.28,0,0,1,.22-1.21c.17-.4.11-.48-.27-.39a1.21,1.21,0,0,1-.79-.09.29.29,0,0,0-.2-.06Zm6.42-.18a.52.52,0,0,0-.34.91c.19.19.84-.35.84-.7,0-.13-.22-.23-.5-.21Zm4.77-.26c-.14,0-.25.2-.25.43s.11.34.25.24a.61.61,0,0,0,.25-.43A.23.23,0,0,0,320.21,221.16ZM327,222.4c-.15,0-.2.14-.11.28s.2.25.26.25.11-.12.11-.27A.26.26,0,0,0,327,222.4Zm-24.12,1.34a.74.74,0,0,0-.28.06c-.2.1-.14.16.16.16s.41-.08.33-.16a.33.33,0,0,0-.21-.06Zm19.35-1a.51.51,0,0,0-.38.74.5.5,0,0,0,.39.27.53.53,0,0,0,.28-.89A.39.39,0,0,0,322.21,222.72Zm13.25-.42s-.08.09-.17.33a1.24,1.24,0,0,0-.09.74c.21.38.33.17.31-.55A1.29,1.29,0,0,0,335.46,222.3Zm-33,2.08a.28.28,0,0,0-.22.15c-.07.13,0,.42.26.65s.28.4.13.41a.27.27,0,0,0-.27.25c0,.13.45.2,1,.15,1.17-.09,1.22-.16.37-.46-.34-.12-.63-.39-.63-.6a.61.61,0,0,0-.65-.55Zm-2,1.23c-.3,0-.39.46-.24,1.28s.28,1,.75.94c.93-.05,1.05-1,.23-1.79C300.92,225.74,300.68,225.6,300.5,225.61Zm16.88-.52a1.26,1.26,0,0,0-.31.09c-.22.11-.34.31-.25.45.2.34.56.32.77-.06s.06-.5-.21-.48Zm16.85-.8c-.09,0-.16,0-.19,0s0,.24.23.36.42.16.49.08,0-.24-.23-.36a.79.79,0,0,0-.3-.11Zm-9.6,1c-.2,0-.46.16-.75.52s-.39.62-.12,1.05.36.48.86.11a1,1,0,0,0,.42-1.07C325,225.46,324.83,225.25,324.63,225.24Zm-10.34.56c-.12,0-.32.1-.72.32-.62.33-.81.8-.47,1.14s.63.15.76-.38c.07-.31.26-.47.48-.4s.31,0,.2-.29S314.4,225.81,314.29,225.8Zm-10.85.81a.41.41,0,0,0-.27.31h0c-.05.18,0,.27.2.2s.29-.21.28-.32-.1-.22-.21-.19Zm12.5-.66a.27.27,0,0,0-.25.28.24.24,0,0,0,.25.25.27.27,0,0,0,.25-.28A.24.24,0,0,0,315.94,226Zm18.59-.74a.29.29,0,0,0-.26.28.25.25,0,0,0,.26.26.29.29,0,0,0,.25-.28A.26.26,0,0,0,334.53,225.21Zm-1.25.94a.62.62,0,0,0-.32.17c-.19.23-.18.42.05.71.36.44,1.26.49,1.26.07a.25.25,0,0,0-.26-.25c-.15,0-.2-.11-.11-.26C334.07,226.29,333.64,226.08,333.28,226.15Zm-18.15,1.51c-.4,0-.53.17-.66.56-.29.84-.11,1.4.55,1.71a1.4,1.4,0,0,0,.92.11l.82-.31c.45-.16.62-.91.2-.89-.12,0-.27-.24-.31-.56s-.29-.58-1-.62a2.64,2.64,0,0,0-.49,0Zm7.35-.15a.2.2,0,0,0-.18.06.43.43,0,0,0,0,.43c.2.34.63.34.63,0a.57.57,0,0,0-.49-.49Zm-20.74,1.35c-.37,0-.58.14-.49.29a.79.79,0,0,0,.64.24c.27,0,.49-.15.49-.3S302.09,228.84,301.74,228.86Zm29.52-1.59a.27.27,0,0,0-.25.28.24.24,0,0,0,.25.25.27.27,0,0,0,.25-.28A.24.24,0,0,0,331.26,227.27Zm-12.21.81a.53.53,0,0,0-.46.75c.15.39.21.39.76,0,.73-.55.74-.58.13-.71a1.06,1.06,0,0,0-.43,0Zm-5.23.66a.59.59,0,0,0-.26.28c-.09.16,0,.27.11.27a.29.29,0,0,0,.26-.29C313.93,228.86,313.88,228.74,313.82,228.74Zm1.73.18c.22,0,.39.1.39.24a.27.27,0,0,1-.24.28.5.5,0,0,1-.39-.24C315.23,229.06,315.33,228.93,315.55,228.92Zm-16.24,1.21h0c0,.33,0,.66,0,1,.22,0,.37-.26.37-.57s-.15-.46-.31-.43Zm32.08-1.3a.4.4,0,0,0-.33.3c-.05.17.1.29.33.27s.37-.14.32-.3a.34.34,0,0,0-.32-.27Zm-12.94.73a.29.29,0,0,0-.25.29.24.24,0,0,0,.25.25.27.27,0,0,0,.25-.28A.25.25,0,0,0,318.45,229.56Zm-14.3,1a.29.29,0,0,0-.26.29c0,.14.05.26.11.26a.59.59,0,0,0,.26-.28C304.35,230.71,304.3,230.6,304.15,230.6Zm3.93-.15a.53.53,0,0,0-.17.22,1.68,1.68,0,0,0-.25.68c0,.15.11.08.25-.15a1.74,1.74,0,0,0,.24-.68c0-.07,0-.09-.07-.07Zm5.1.34a.56.56,0,0,0-.45.49c-.06.33.07.47.45.45s.51-.17.45-.5A.5.5,0,0,0,313.18,230.79Zm13.07-.57a.28.28,0,0,0-.26.28c0,.15.05.26.11.26s.18-.13.26-.28S326.4,230.21,326.25,230.22Zm-27,2.67h0v.48c.39,0,.37-.1,0-.49Zm4.21.19c-.15,0-.31.09-.52.32s-.3.26-.3,0-.06-.3-.13-.21a.64.64,0,0,0,0,.53c.08.22.46.37.87.35.63,0,.7-.11.49-.52s-.28-.42-.42-.44Zm4.49.14c-.08.09,0,.27.22.4.54.33.6.28.24-.17-.17-.21-.38-.32-.46-.23Zm35.48-1.7c-.15-.05-.4.32-.54.81s-.28.68-.29.42-.17-.43-.66-.27-.62.09-.62-.1-.19-.28-.41-.27-.35.09-.11.38.19.43.06.53a1.41,1.41,0,0,0-.37.72c-.07.3,0,.54.1.53s.22-.19.22-.4c0-.57.31-.69,1.32-.5.74.13,1,.07,1.33-.34s.42-1.38,0-1.51ZM311,233.3a1,1,0,0,0-.85.34c-.27.36-.24.39.14.21s.42-.11.32.18.09.39.85.35c.54,0,.87-.09.72-.14a.48.48,0,0,1-.27-.46c0-.21-.08-.38-.19-.39s-.43,0-.72-.09Zm9.81-.37a.38.38,0,0,0-.36.41c0,.22-.11.41-.25.42s-.25-.13-.25-.3-.06-.25-.13-.17c-.27.3.19,1,.72,1.07l.73.11c.23,0,.24-.58,0-1.15a.54.54,0,0,0-.49-.39Zm-6.92.67a1.34,1.34,0,0,0-.4.07c-.25.08-.11.13.31.11s.61-.08.44-.14a.89.89,0,0,0-.35,0Zm-10.58.81c-.78,0-1,.12-.69.3.44.27,1.76.16,1.76-.16C304.39,234.44,303.91,234.37,303.32,234.41Zm5.29.07a1.13,1.13,0,0,0-.7.92c0,.29.11.31.48.08.65-.4.84-.78.51-1a.36.36,0,0,0-.29,0Zm16.26-.58a.43.43,0,0,0-.39.48c0,.12.23.21.5.19.58,0,.68-.44.15-.63A.82.82,0,0,0,324.87,233.9ZM345.5,233a.18.18,0,0,0-.17.05.62.62,0,0,0-.26.44c0,.15.12.19.26.09a.67.67,0,0,0,.25-.44c0-.08,0-.13-.08-.14Zm-31,3.73a1,1,0,0,0-.53.55c-.21.44-.19.55.12.54s.38-.08.38-.14a2.81,2.81,0,0,1,.16-.54C314.7,236.85,314.61,236.73,314.46,236.76Zm-8.44.71a.42.42,0,0,0-.37.42c0,.24.14.32.37.21s.38-.28.38-.41S306.23,237.46,306,237.47Zm10.82.5a.6.6,0,0,0-.5.25.34.34,0,0,0,0,.38c.2.2.85-.12.85-.42s-.17-.22-.36-.21Zm17.86-.39c-.48-.07-1.18.45-1.18.87,0,.14.37.2.82.13C335.22,238.44,335.49,237.7,334.7,237.58Zm3.27.22c-.16,0-.31.1-.56.29a2.12,2.12,0,0,0-.68,1.22c-.06.44,0,.8.1.79s.21-.14.21-.3.2-.22.45-.15a1.21,1.21,0,0,0,1-.45c.63-.66,1.05-.55,1.05.28s.31.33.38-.62c.05-.69,0-.79-.41-.64a1.27,1.27,0,0,1-1-.18.88.88,0,0,0-.54-.24Zm5.74.59c-.07,0-.18.13-.27.28s0,.27.11.26a.28.28,0,0,0,.27-.28C343.82,238.5,343.77,238.39,343.71,238.39Zm-38.24,2.09-.41,0c-.73.12-.8.21-.82,1.14,0,.55.07,1,.18,1s.22-.18.22-.39a.73.73,0,0,1,.48-.57,1.18,1.18,0,0,0,.6-.74c.09-.36.06-.48-.25-.47Zm35.46-1.4c-.56,0-.46.43.19.73s.88.34,1.07,0c.08-.15-.08-.26-.37-.25s-.51-.09-.51-.24-.17-.26-.38-.24Zm-16.55,1c-.27.12-.54.24-.83.34a.4.4,0,0,0,.24.2.56.56,0,0,0,.53-.11.38.38,0,0,0,.06-.43Zm14.68-.09a.29.29,0,0,0-.27.28c0,.15,0,.27.12.27s.18-.14.26-.29S339.21,240,339.06,240Zm-24.6,1.62a.45.45,0,0,0-.25.1.54.54,0,0,0-.1.6c.13.37.17.37.38-.05s.17-.66,0-.65Zm25.16-1.28a.17.17,0,0,0-.07.15.25.25,0,0,0,.25.27c.14,0,.25-.06.25-.13s-.11-.18-.25-.27a.2.2,0,0,0-.18,0Zm-2.19.82a.44.44,0,0,0-.39.45c0,.47.54.36.69-.15.06-.17-.08-.31-.3-.3Zm-1.33.44a.74.74,0,0,0-.05.28c0,.28.05.44.13.35a.57.57,0,0,0,0-.52c0-.1-.08-.14-.11-.11Zm-33.72,1.82c-.54,0-.75.21-.75.54,0,.55,0,.55.86.16S303.3,243.32,302.38,243.4Zm-3.22.61c0,.62,0,1.24,0,1.86.11,0,.22,0,.22-.07s.1-.45.22-.91c.19-.7.16-.84-.18-.8a.29.29,0,0,1-.25-.08Zm36.89-1-.25.06c-.52.17-.68.66-.35,1s.7,0,.79-.6C336.28,243.08,336.24,243,336.05,243Zm6.79-.1a1,1,0,0,0-.42.07c-.27.12-.23.26.19.6s.57.4.94,0,.36-.46-.19-.6a1.51,1.51,0,0,0-.52-.06Zm-1.91.24c-.22,0-.34.14-.25.28s.2.25.25.25.17-.13.25-.28S341.15,243.08,340.93,243.1Zm-31.6,2.23c-.52,0-.7.36-.39.74.15.18.38.27.5.18.35-.25.26-.94-.11-.92Zm14.83-.77s-.09,0-.21.18-.17.53.3,1.25c.33.51.69.92.78.91.34,0,.5-.6.34-1.27s-.28-.64-.79-.51-.6.07-.48-.28c.06-.17.09-.27.06-.28Zm5.41-.27c-.15,0-.39.15-.8.51s-.54.69-.46.9c.16.43,1.95.24,1.95-.2,0-.14-.12-.17-.25-.07s-.25-.12-.25-.51-.05-.61-.19-.63Zm-22.92,1.46c-.14,0-.25.2-.25.43s.11.34.25.24a.61.61,0,0,0,.25-.43A.23.23,0,0,0,306.65,245.75Zm4.76,0c-.15,0-.2.13-.11.27s.2.26.26.26.11-.13.11-.28A.25.25,0,0,0,311.41,245.76Zm1.5-.08c-.28,0-.44.14-.36.29a.6.6,0,0,0,.52.23c.2,0,.36-.13.36-.28s-.23-.26-.52-.24Zm-2.24.26c-.14-.09-.25,0-.25.26,0,.47.15.53.36.15a.31.31,0,0,0-.11-.41Zm22.85-1.08a.55.55,0,0,0-.3.21c-.23.26-.17.33.3.3s.54-.1.3-.34A.47.47,0,0,0,333.52,244.86Zm-30.85,1.79a2.31,2.31,0,0,0-.41.07,1.49,1.49,0,0,0-.8.46c-.1.18,0,.21.24.1s.48-.08.56.06a.63.63,0,0,0,.54.22c.3,0,.33-.1.12-.36s-.22-.41-.15-.49,0-.06-.1-.06Zm-2.8,1.07a.52.52,0,0,0-.34.91c.19.19.84-.35.84-.7C300.37,247.8,300.14,247.71,299.87,247.72Zm6.06-.25a.34.34,0,0,0-.26.06c-.38.26-.35,1,0,1,.17,0,.09.12-.19.26s-.43.25-.07.25c.54,0,1.1-1.06.74-1.42a.42.42,0,0,0-.26-.12Zm23.81-.8s-.11,0-.27.18a1.13,1.13,0,0,1-.92.22c-.47-.1-.55,0-.55.58,0,.38-.15.71-.32.72s-.44.33-.61.71c-.27.64-.23.72.51,1,1.28.53,1.55.45,1.05-.33s-.4-.7,0-1.16c.65-.67,1.35-1,1.35-.56,0,.21.08.18.23-.08.3-.51.11-.84-.37-.62-.28.13-.33.05-.2-.33C329.75,246.8,329.77,246.69,329.74,246.67Zm-5.32.7c-.25.06-.44.22-.44.44s-.12.18-.25.1-.25,0-.25.11a.54.54,0,0,0,.26.43c.18.11.18.28,0,.53-.47.63.22.77.71.15.36-.47.5-.5.87-.24s.59,1.45.16,1.47c-.15,0-.18.16-.08.33h0c.14.24.21.23.29,0s.2-.26.42-.07.41.15.64-.16.22-.41,0-.4-.28-.17-.28-.4a.63.63,0,0,0-.38-.55.77.77,0,0,1-.37-.7,1.15,1.15,0,0,0-.5-.88,1.1,1.1,0,0,0-.82-.13Zm-25.29,1.74c0,.17,0,.35,0,.53a.29.29,0,0,0,.25-.28.23.23,0,0,0-.24-.25Zm36.39-2c-.11,0-.16.18-.08.4s0,.4-.13.4-.28-.16-.28-.38c0-.44-.44-.5-.95-.13-.23.17-.15.31.31.51s.64.41.64.56-.15.21-.49,0c-.62-.32-.9.13-.39.64a1.39,1.39,0,0,1,.38.66c0,.14.19.31.44.36a5.08,5.08,0,0,0,2.12-.11c.35-.11.38-.26.18-.83a1.94,1.94,0,0,1-.13-1c.14-.42-.49-1-.83-.75a.27.27,0,0,1-.4-.09c-.12-.2-.28-.28-.39-.24Zm-26.62,1.69c-.15,0-.2.13-.11.28s.2.26.26.25.11-.13.11-.27A.25.25,0,0,0,308.9,248.84Zm1.7,0c-.05,0-.15.1-.31.28a1.61,1.61,0,0,0-.38.57c0,.08.17.07.38,0a.69.69,0,0,0,.38-.57c0-.17,0-.25-.07-.25Zm27.18-1c-.15,0-.2.13-.11.28s.2.25.26.25.11-.13.11-.27A.26.26,0,0,0,337.78,247.82Zm-32.31,1.84a.17.17,0,0,0-.08.16.25.25,0,0,0,.26.27c.13,0,.25-.07.25-.13s-.12-.19-.25-.27a.21.21,0,0,0-.18,0Zm16.77-.73a.28.28,0,0,0-.27.28c0,.15,0,.27.11.26s.18-.13.26-.28S322.38,248.92,322.24,248.93Zm13.56-.46a.23.23,0,0,1,.23.25c0,.15-.17.28-.39.29s-.32-.1-.24-.26A.57.57,0,0,1,335.8,248.47Zm-10.71.67a1.24,1.24,0,0,0-.37.5c-.29.62-.28.62.16.16.25-.27.38-.56.3-.65s-.05,0-.09,0Zm-12.66.85c-.14,0-.26.2-.26.42s.12.4.26.39.25-.2.25-.42S312.56,250,312.43,250Zm-8,1a.29.29,0,0,0-.27.28c0,.15.05.27.11.26s.18-.12.26-.28,0-.27-.1-.26ZM340.78,249c-.18-.05-.43.06-.68.34a1.27,1.27,0,0,0-.3.7c0,.65,1.12.21,1.21-.47.05-.33-.06-.53-.23-.57ZM313,250.87a.47.47,0,0,0-.05.28c0,.28.05.44.13.34a.58.58,0,0,0,0-.51c0-.11-.07-.14-.1-.11Zm-7.67.69a.92.92,0,0,0-.28.05c-.92.35-1.3.9-.92,1.36s.58.49.27-.11c-.19-.37-.16-.53.12-.66.55-.26,1.11,0,1,.47s.27.48.65,0-.18-1.11-.8-1.08Zm26.41-.46c-.13,0-.23.19-.23.41a.37.37,0,0,0,.37.38c.22,0,.31-.17.23-.41S331.86,251.09,331.74,251.1Zm-15.8,1.25a.34.34,0,0,0-.11.43c.21.36.36.28.36-.19,0-.23-.11-.34-.25-.24Zm-6,.57a4,4,0,0,0-1.36.42c-.37.24-.19.86.3,1,.32.09.43.29.33.58s0,.38.21.28.34-.5.33-1.06A1.83,1.83,0,0,1,310,253c.07-.06,0-.08-.06-.08Zm-9.6.67c-.15,0-.2.13-.11.28s.2.25.26.25.11-.13.11-.27A.25.25,0,0,0,300.36,253.59ZM329.85,252a.29.29,0,0,0-.14,0,.89.89,0,0,0-.42.62c-.05.31,0,.43.25.34a.87.87,0,0,0,.43-.62C330,252.18,330,252.05,329.85,252Zm-9.36.52c-.4.1-.55.77-.25,1.37s.3.54.64,0,.34-1.31-.2-1.4a.59.59,0,0,0-.19,0Zm2.39.76a1,1,0,0,0-.35.09c-.25.11-.25.22,0,.49.37.47,1,.43,1-.06a.53.53,0,0,0-.6-.51Zm-9.37.58a2,2,0,0,0,0,.38c0,.4,0,.77-.17.83s-.17.36-.07.68.26.57.38.57c.33,0,.78-.75.58-.94s0-.29.16-.43.22-.27-.18-.39a1,1,0,0,1-.65-.59c0-.13-.06-.16-.07-.11Zm-5.23.61c-.2,0-.37.14-.37.28s.17.26.37.25.38-.14.38-.29S308.49,254.49,308.28,254.51Zm10.55-.57c-.25-.11-.26.11-.27,1,0,.63.07,1.09.19,1a.66.66,0,0,0,.21-.44,1.08,1.08,0,0,1,.4-.63c.36-.3.34-.38-.19-.72A2,2,0,0,0,318.83,253.94Zm6.51-.19s-.12,0-.24,0-.37.27-.37.4c0,.39.44.26.59-.18C325.37,253.87,325.37,253.79,325.34,253.75Zm2.17,0a.42.42,0,0,0-.25.1.35.35,0,0,0-.12.45c.11.18.25.17.43,0s.16-.53-.06-.52Zm14.1-.76c-.09,0-.25.18-.57.54s-.46.66-.22,1c.41.51,1-.06.93-.91,0-.39-.05-.58-.14-.59Zm-17.81,1a.17.17,0,0,0-.07.15.25.25,0,0,0,.25.27c.14,0,.25-.06.25-.13s-.11-.18-.25-.27a.17.17,0,0,0-.18,0Zm-8.34.61a.29.29,0,0,0-.27.29c0,.15.05.26.11.26s.18-.13.27-.28S315.6,254.65,315.46,254.65Zm-8.57.74c-.29,0-.45.14-.37.28a.63.63,0,0,0,.52.24.34.34,0,0,0,.36-.29c0-.14-.23-.25-.51-.23Zm20.79,0c-.49,0-.69.07-.69.37a.38.38,0,0,0,.32.42c.25,0,.25,0,0,.16a.58.58,0,0,0-.24.33c.39,0,.77.07,1.15.13a.81.81,0,0,0-.54-1.41Zm11.23-.52a1.13,1.13,0,0,0-.38.22c-.44.31-.45.37-.09.43s.19.23-.42.65l-.83.58.62.47c.69.53.95.57,1.47.19s.57-1.46.17-1.27a.4.4,0,0,0-.22.42c.08.35-.35.42-.55.08-.08-.13,0-.44.26-.68s.28-.44.1-.43-.24-.17-.16-.39.08-.26,0-.27Zm-13.5.75c-.53-.12-1,.37-1.13,1h.43c.32-.37.63-.49.4-.08,0,0,0,.06,0,.08h.24c.59-.3.63-.87.06-1Zm16.51-.25c-.42,0-.95,1-.74,1.39.09.14-.08.27-.37.28-.64,0-1,.82-.48,1.13.24.15.48,0,.77-.34s.53-.57.68-.57.19-.22.1-.46-.05-.37.08-.29.24-.15.26-.51-.1-.64-.3-.63Zm-26,1.67a1.46,1.46,0,0,0-.57.84c-.15.45-.37.82-.48.83s-.19.15-.19.32.24.07.56-.23.58-.54.6-.55a3.21,3.21,0,0,0,.2-.61c.14-.47.05-.65-.12-.6Zm-4.12.24c-.34.08-.89.39-.89.56s.27.07.61-.12.57-.37.52-.42-.13,0-.24,0Zm36.27-1.44c-.35,0-.49.21-.48.63s.08.45.15.26.22-.29.33-.22.27-.06.35-.28,0-.4-.35-.39Zm-44.3,2.66c-.37,0-.09.52.36.65.28.08.5.26.5.41s-.23.2-.53.12-.48-.06-.36.13a.75.75,0,0,0,1.2-.1c.1-.3-.8-1.23-1.17-1.21Zm30.75-.05a.28.28,0,0,0-.26.28.25.25,0,0,0,.26.26.29.29,0,0,0,.25-.29A.25.25,0,0,0,334.53,258.45Zm1.34,0c-.16,0-.33.18-.4.59s0,.68.36.66.47-.18.41-.6-.21-.64-.37-.65Zm-31.34,2c-.64.07-.79.24-.48.56.09.09.35,0,.57-.18s.43-.37.48-.4-.21,0-.57,0Zm3.52.79c-.06,0-.18.13-.27.28s0,.27.11.26a.28.28,0,0,0,.27-.28c0-.15-.05-.26-.11-.26Zm-4.35.79s0,.1,0,.29a.81.81,0,0,1-.56.61c-.37.12-.48.31-.37.61a4.87,4.87,0,0,1,.15,1.22c0,.43.12.77.27.76s.2-.11.13-.24,0-.39.23-.58.38-.26.38-.15.17,0,.38-.16a1.23,1.23,0,0,0-.13-1.6,1.29,1.29,0,0,1-.32-.52c-.06-.17-.1-.24-.12-.24Zm37.61-1.95a.94.94,0,0,0-.5.8c0,.11.22.19.5.18a.51.51,0,0,0,.22-1,.24.24,0,0,0-.22,0Zm-36.1,2.49a.74.74,0,0,0,0,.28c0,.28,0,.43.14.34a.56.56,0,0,0,0-.51c0-.11-.07-.14-.1-.11Zm43.08-2a1.55,1.55,0,0,0-1,.28c-.68.35-.73.43-.27.42a.88.88,0,0,1,.7.26.47.47,0,0,0,.88-.3C348.59,260.82,348.5,260.6,348.29,260.54Zm-39.63,3.33a.27.27,0,0,0-.25.28.24.24,0,0,0,.25.25.27.27,0,0,0,.25-.28A.24.24,0,0,0,308.66,263.87Zm-7.17.65c-.22,0-.33.14-.24.28a.51.51,0,0,0,.39.25.28.28,0,0,0,.24-.28c0-.15-.18-.26-.39-.25Zm7.86.47c-.38,0-.94.38-.94.67s.09.36.2.35c.33,0,1.19-.81,1-1a.35.35,0,0,0-.3-.06Zm39-1.92c-.13,0-.24.19-.24.42s0,.4.1.39.16-.19.24-.41,0-.41-.1-.4Zm-2.53.16a.72.72,0,0,0-.47.59c0,.17.14.15.38-.08s.33-.41.26-.47A.15.15,0,0,0,345.8,263.23Zm-46.53,2.62,0,1.43c.16,0,.31-.1.42-.43A.84.84,0,0,0,299.27,265.85ZM338,264.7a.27.27,0,0,0-.24.28c0,.15.18.26.39.24s.33-.13.24-.28a.5.5,0,0,0-.39-.24Zm3.84,0a.28.28,0,0,0-.15.08c-.11.13-.05.48.13.78.39.65.67.69.88.11.15-.43-.49-1.06-.86-1Zm-41.5,2.86c-.5,0-1.11.93-.83,1.22s1,.12,1.32-.3.14-.95-.49-.92Zm7.54,0c-.29,0-1,.66-1,1,0,.14.14.15.31,0,.69-.45.93-.77.79-1a.09.09,0,0,0-.09-.05Zm37.3-1.91c-.06,0-.18.13-.26.28s0,.27.11.26a.28.28,0,0,0,.27-.28C345.33,265.76,345.28,265.65,345.21,265.65Zm3.09.15a.26.26,0,0,0-.14.06c-.08.09,0,.17.28.15l.05,0,.06-.21-.25,0Zm-2.38.35c-.23,0-.35.2-.3.48s.28.43.75.35.74,0,.83.16a.68.68,0,0,0,.76.2l.09-.2a4.15,4.15,0,0,0-2.13-1Zm-11.14,1.13c-.64,0-.76.15-.76.73s.08.63.44.41a1.09,1.09,0,0,1,.76-.16c.18.06.31-.13.31-.46s-.16-.55-.75-.52Zm2.82-.06a1.07,1.07,0,0,0-.84.4c-.42.47-.44.63-.16,1.26l.31.72.57-.73a2.56,2.56,0,0,0,.56-1.12A.49.49,0,0,0,337.6,267.22Zm-8,.88c-.19,0-.35.26-.35.55s-.11.55-.25.55-.34,1.17-.07,1.45a.67.67,0,0,0,.56.08C330,270.59,330.12,268.07,329.6,268.1Zm14.72-.12c-.14-.09-.25,0-.25.26,0,.47.15.54.37.15a.31.31,0,0,0-.12-.41Zm-8,.83a.29.29,0,0,0-.27.28c0,.15.05.27.11.26s.18-.12.27-.28S336.44,268.8,336.3,268.81Zm-13,1.22c-.1,0-.22.14-.28.32s0,.27.2.2c.33-.13.38-.5.08-.52Zm-7.21,1c-.22,0-.39.1-.39.4,0,.53-.37.54-.89,0s-.43-.4-.66,0a1,1,0,0,1-.7.49c-.41,0-.43.11-.17.68s1.05.85,1.23.27c.08-.27.2-.27.52,0s.42.25.42.12.14-.07.31.1c.38.38.68.26,1.11-.44.28-.47.27-.65-.06-1.13a1.16,1.16,0,0,0-.72-.53Zm28.31-1.48s-.05.08-.05.25a.66.66,0,0,1-.32.57.29.29,0,0,0-.11.43c.25.41.92.36.89-.06a3.26,3.26,0,0,0-.23-.86q-.12-.31-.18-.33Zm-42.33,2.31s-.1,0-.27.08-.41.3-.41.43c0,.35.14.29.5-.2C302,272,302.08,271.86,302.06,271.82Zm23.54-1.19c-.22,0-.37.11-.37.39s.18.52.78.49.71-.1.43-.37A1.5,1.5,0,0,0,325.6,270.63Zm-7.75.85c-.1.07-.08.29,0,.67s.23.53.65.27.49-.32-.05-.69c-.32-.22-.52-.31-.61-.25Zm-5.81.73a3.64,3.64,0,0,0-.76.77,7.61,7.61,0,0,0-.86,1.1,7.73,7.73,0,0,0,2-.91,1.24,1.24,0,0,0-.09-.64C312.23,272.27,312.17,272.15,312,272.21Zm15.11-.14c-.12-.05-.16.08-.16.46s.07.57.3.3.24-.4,0-.64a.47.47,0,0,0-.14-.12Zm-12,1.36c-.14,0-.19.13-.11.28s.21.26.27.25.11-.13.11-.27A.25.25,0,0,0,315.17,273.43Zm1.29.47a.29.29,0,0,0-.27.28c0,.15.05.27.11.27s.19-.14.27-.29S316.61,273.89,316.46,273.9Zm5.37,0c-.49,0-.73.6-.36.83a.78.78,0,0,0,.65.05c.4-.19.17-.91-.29-.88Zm-5.34.89a.44.44,0,0,0-.32.24,1.39,1.39,0,0,0-.16.79,1.27,1.27,0,0,1-.44.89c-.41.39-.44.53-.17.71a1.25,1.25,0,0,0,1.07-.11c.59-.27.73-.49.73-1.18s-.37-1.35-.71-1.34Zm-5.81.77c-.51,0-.77.23-.78.79,0,.73,0,.73-.29.15-.15-.32-.43-.58-.63-.57s-.29.12-.21.25c.18.31-.35,1.93-.64,1.94-.12,0-.22.2-.22.42a2.9,2.9,0,0,1-.41,1.1c-.25.42-.3.68-.13.67s.28.15.28.36a.57.57,0,0,0,.32.5c.63.24.76.13.36-.32a.72.72,0,0,1-.18-.85.7.7,0,0,0,.1-.6c-.17-.28.7-1.86,1-1.88a1,1,0,0,1,.56.28c.21.22.48.07,1-.57.87-1,1-1.32.38-1.53a2.81,2.81,0,0,0-.6-.14Zm-10.08,1.15a6.65,6.65,0,0,0,.27.61C301.05,277.15,301,276.92,300.6,276.69Zm31.14-1.29a1,1,0,0,0-.33.19c-.26.22-.4.53-.3.7.25.41.64.35.81-.13S332,275.33,331.74,275.4Zm-12.28.75c-.34,0-.5.21-.5.57s.16.52.5.5.5-.2.5-.56S319.79,276.13,319.46,276.15Zm5.3,0c-.33,0-.52.7-.36,1.34.22.88.58.62.58-.41,0-.52-.1-.93-.22-.93Zm-11.08.73a.63.63,0,0,0-.25.44.24.24,0,0,0,.25.24c.14,0,.25-.21.25-.44S313.82,276.76,313.68,276.86Zm18.68-.32a1.64,1.64,0,0,0-.58.28,1.2,1.2,0,0,0-.46,1c0,.57.12.68.73.64s.72-.17.72-.47-.08-.36-.35-.11-.38.23-.5-.1c-.22-.59-.2-.64.22-.66.21,0,.38-.15.38-.29s0-.25-.16-.25Zm-1.84.14c-.27,0-.51.35-.51.84s0,.55.5,0c.32-.32.42-.61.28-.76a.41.41,0,0,0-.27-.12Zm-1.77.18c-.14-.09-.25,0-.25.26,0,.47.15.53.37.15A.32.32,0,0,0,328.75,276.86Zm-8.42.66c-.38.12-.51.77-.07,1.22.24.24.35.21.52-.12a.56.56,0,0,1,.7-.29c.28.07.49,0,.49-.15a.3.3,0,0,0-.25-.31,1.64,1.64,0,0,1-.94-.27.56.56,0,0,0-.45-.08ZM323,278c-.47.22-1.26,2-.95,2.22.12.07.22,0,.22-.2s.07-.27.28-.06a.6.6,0,0,0,.63.13c.19-.09.35,0,.35.13s.19.29.44.27.38-.06.06-.26-.31-.25.06-.27.44-.15.44-.3a.24.24,0,0,0-.25-.25c-.14,0-.25-.14-.25-.34,0-.6-.63-1.26-1-1.07Zm14.23-.54a2.21,2.21,0,0,0-.54.1.78.78,0,0,0-.61.84c0,.43.1.6.35.57.57-.26,1.14-.55,1.69-.86a.24.24,0,0,1,0-.09c0-.37-.36-.58-.86-.56Zm-8.18.49c-.14-.09-.25,0-.25.26,0,.47.15.53.36.15a.31.31,0,0,0-.11-.41Zm-6,.55s.07,0,.11.11a.61.61,0,0,1,0,.52c-.09.09-.15-.06-.14-.35a.8.8,0,0,1,.05-.28Zm7.56,0a.83.83,0,0,0-.58.51c-.21.43-.16.5.31.42l.9-.15c.28,0,.28-.13,0-.44a.74.74,0,0,0-.66-.34Zm3.39-.08c-.21,0-.27.12-.1.4a.3.3,0,0,0,.43.1c.17-.12.14-.26-.07-.39a.77.77,0,0,0-.26-.11Zm1.36.92a.3.3,0,0,0-.12,0l-.09.07.21-.08Zm-1.33.16a.7.7,0,0,0-.21.4l.46-.15v0c0-.22-.11-.32-.25-.22Z" transform="translate(-40.27 -187.2)"/><path id="path5118" class="cls-6" d="M324.65,219.38a77.41,77.41,0,0,0-17.17,2.29,5.77,5.77,0,0,0-4.23,3.05c-1.1,2.09-1.73,5.52-1.73,11.63,0,2.27-.49,11.34-.7,20.13-.1,4.39-.13,8.73,0,12.17.07,1.72.18,3.22.35,4.4a5.44,5.44,0,0,0,.83,2.64c2.12,2.65,5.64,4.21,9.75,4.91a39.07,39.07,0,0,0,13.46-.33c9.26-1.75,18.2-6.33,20.72-13.19,1.62-4.4,1.77-8.2.59-11.25a11.62,11.62,0,0,0-7.12-6.61c-.69-.26-.77-.45-.79-.81a4,4,0,0,1,.63-1.79c.87-1.54,2.46-3.54,3.46-5.65a20.52,20.52,0,0,0,2-7.41,10.43,10.43,0,0,0-2.19-7.47c-3.79-4.43-9.34-6.27-15.51-6.64-.77,0-1.55-.07-2.34-.07Zm0,1.33c.76,0,1.52,0,2.26.07,5.95.35,11.09,2.1,14.57,6.18a9,9,0,0,1,1.87,6.53,19.07,19.07,0,0,1-1.84,6.91c-.9,1.9-2.45,3.86-3.41,5.57a4.8,4.8,0,0,0-.81,2.51,2.36,2.36,0,0,0,1.66,2,10.22,10.22,0,0,1,6.35,5.83c1,2.68.94,6.13-.6,10.32C342.47,272.68,334,277.26,325,279a37.64,37.64,0,0,1-13,.33c-.29,0-.58-.12-.87-.18a1.27,1.27,0,0,1,.44-1.05,5.89,5.89,0,0,1,1.55-.75,5,5,0,0,0,2-1.18,3.88,3.88,0,0,0,.92-2.84,4.65,4.65,0,0,0-1-3,5.84,5.84,0,0,0-2-1.39,6.34,6.34,0,0,1-1.64-1,2.19,2.19,0,0,1-.64-1.77,2.65,2.65,0,0,1,1.5-2.5,6.23,6.23,0,0,0,1.28-1.08,4.76,4.76,0,0,0,.58-2.46,3,3,0,0,0-.59-2.23,4.7,4.7,0,0,0-1.6-1.37,9.34,9.34,0,0,1-1.34-.81,1.09,1.09,0,0,1-.44-1,1.37,1.37,0,0,1,.45-1.23,5.07,5.07,0,0,1,1.27-.66,4,4,0,0,0,1.65-1.14,4.18,4.18,0,0,0,.78-2.7,2.53,2.53,0,0,0-.79-1.93,5.06,5.06,0,0,0-1.45-.81,2.85,2.85,0,0,1-1.07-.7,2.29,2.29,0,0,1-.43-1.59,1.89,1.89,0,0,1,.53-1.58,3,3,0,0,1,1.27-.53,3.73,3.73,0,0,0,1.67-.68,2.36,2.36,0,0,0,.64-2.21,3.71,3.71,0,0,0-1-2.13,8,8,0,0,0-1.52-1.15,4.13,4.13,0,0,1-1.13-1,2.18,2.18,0,0,1-.34-1.57,1.34,1.34,0,0,1,.46-.75,10.32,10.32,0,0,1,1.2-.92,8.54,8.54,0,0,0,1.33-1.07,2.28,2.28,0,0,0,.73-1.58,3.93,3.93,0,0,0-1.06-2.48c-.54-.67-1.15-1.24-1.49-1.72a1.57,1.57,0,0,1-.3-.6.61.61,0,0,1,.08-.46,5.81,5.81,0,0,1,2.61-1.72.63.63,0,0,0,.2-.13,62.63,62.63,0,0,1,10.29-.95ZM311,222.29a2.82,2.82,0,0,0-.5.63,1.88,1.88,0,0,0-.22,1.27,2.7,2.7,0,0,0,.5,1.07c.46.64,1.07,1.2,1.55,1.78a2.84,2.84,0,0,1,.78,1.73,1.09,1.09,0,0,1-.39.76,8.86,8.86,0,0,1-1.16.92,10.43,10.43,0,0,0-1.34,1,2.37,2.37,0,0,0-.82,1.5,3.47,3.47,0,0,0,.54,2.34,5,5,0,0,0,1.45,1.29,7.69,7.69,0,0,1,1.33,1,2.37,2.37,0,0,1,.69,1.46c.1.77,0,1-.23,1.15a3.53,3.53,0,0,1-1.19.43,3.94,3.94,0,0,0-1.78.79,3.2,3.2,0,0,0-.93,2.46,3.54,3.54,0,0,0,.71,2.36,3.79,3.79,0,0,0,1.5,1,5,5,0,0,1,1.14.61,1.19,1.19,0,0,1,.39,1,2.93,2.93,0,0,1-.52,2,2.86,2.86,0,0,1-1.19.79,5.61,5.61,0,0,0-1.58.86,2.72,2.72,0,0,0-.86,2.12,2.45,2.45,0,0,0,.86,1.88,9.21,9.21,0,0,0,1.52.94,3.67,3.67,0,0,1,1.22,1,3.25,3.25,0,0,1,.49,2,1.82,1.82,0,0,1-.42,1.26,5.76,5.76,0,0,1-1.05.86,4.08,4.08,0,0,0-2,3.44v0a3.56,3.56,0,0,0,1,2.63,7.4,7.4,0,0,0,2,1.2,4.85,4.85,0,0,1,1.63,1.09,3.4,3.4,0,0,1,.74,2.29,2.63,2.63,0,0,1-.6,2,4.16,4.16,0,0,1-1.54.88,6.22,6.22,0,0,0-1.9,1,2.62,2.62,0,0,0-.83,1.67,17.55,17.55,0,0,1-3.64-1.39c-.06-.77.08-1,.3-1.19a3.79,3.79,0,0,1,1.21-.45,3,3,0,0,0,2.5-3.54,2.84,2.84,0,0,0-1-2.09,8.14,8.14,0,0,0-1.73-1,4.57,4.57,0,0,1-1.41-1,2.58,2.58,0,0,1-.58-1.83,4.07,4.07,0,0,1,.56-2.34,2.89,2.89,0,0,1,1.23-1,13.39,13.39,0,0,0,1.5-.7,1.93,1.93,0,0,0,1-1.62,3.58,3.58,0,0,0-.91-2.83,3.18,3.18,0,0,0-1.95-.67,3.54,3.54,0,0,1-1.43-.31c-.31-.19-.57-.53-.66-1.56s.13-1.26.46-1.53a4.35,4.35,0,0,1,1.55-.66,5.46,5.46,0,0,0,2.05-.91,3.28,3.28,0,0,0,1.06-2.61,2.43,2.43,0,0,0-1-2,8,8,0,0,0-1.81-.9,4.67,4.67,0,0,1-1.49-.85,1.86,1.86,0,0,1-.57-1.53,2.08,2.08,0,0,1,.63-1.67,4.9,4.9,0,0,1,1.52-.87,5.46,5.46,0,0,0,1.79-1,2.57,2.57,0,0,0,.7-2.29,2.7,2.7,0,0,0-1.13-1.92,5.53,5.53,0,0,0-1.66-.65,2.77,2.77,0,0,1-1.1-.49c-.21-.19-.35-.45-.29-1.18a1.71,1.71,0,0,1,.49-.84,12.67,12.67,0,0,1,1.22-1.12,12.05,12.05,0,0,0,1.31-1.26,2.55,2.55,0,0,0,.7-1.61,3.86,3.86,0,0,0-1.07-2.44c-.55-.66-1.17-1.23-1.52-1.72a1.74,1.74,0,0,1-.31-.61.58.58,0,0,1,.08-.45,4.84,4.84,0,0,1,2.05-1.41c.81-.19,1.64-.35,2.46-.52Zm-5.72,1.84a1.87,1.87,0,0,0,0,.78,2.72,2.72,0,0,0,.51,1.07c.46.64,1.09,1.21,1.57,1.78a2.78,2.78,0,0,1,.79,1.68,1.39,1.39,0,0,1-.42.84,10,10,0,0,1-1.18,1.12,17.27,17.27,0,0,0-1.32,1.23,2.67,2.67,0,0,0-.79,1.53,2.56,2.56,0,0,0,.65,2.15,3.54,3.54,0,0,0,1.6.77,5,5,0,0,1,1.31.49,1.35,1.35,0,0,1,.62,1.1c.11.72,0,1-.33,1.26a5.14,5.14,0,0,1-1.43.77,5.79,5.79,0,0,0-1.9,1.1,3.48,3.48,0,0,0-1,2.52,3.19,3.19,0,0,0,.93,2.39,5.67,5.67,0,0,0,1.86,1.1,7.87,7.87,0,0,1,1.56.75,1.08,1.08,0,0,1,.53,1,1.9,1.9,0,0,1-.63,1.69,4.7,4.7,0,0,1-1.62.7,5,5,0,0,0-2,.88,2.93,2.93,0,0,0-.87,2.54,3,3,0,0,0,1.21,2.47,4.06,4.06,0,0,0,1.95.48,2.23,2.23,0,0,1,1.27.37c.26.24.52.73.51,2,0,.36-.08.43-.39.61s-.83.37-1.4.65a4.11,4.11,0,0,0-1.69,1.39,5.2,5.2,0,0,0-.76,3,3.9,3.9,0,0,0,.86,2.6,5.53,5.53,0,0,0,1.77,1.28,8.26,8.26,0,0,1,1.5.88,1.52,1.52,0,0,1,.58,1.23,2.34,2.34,0,0,1-.44,1.78,2.41,2.41,0,0,1-1.19.57,4,4,0,0,0-1.65.69,2.15,2.15,0,0,0-.71,1.4,9.77,9.77,0,0,1-2.09-1.89,6.62,6.62,0,0,1-.54-2,41,41,0,0,1-.35-4.26c-.14-3.39-.12-7.71,0-12.09.2-8.76.7-17.7.7-20.16,0-6,.66-9.27,1.57-11A5.11,5.11,0,0,1,305.3,224.13Zm17.83,7.36a13.89,13.89,0,0,0-5.11.8,6.36,6.36,0,0,0-1.83,1,2.27,2.27,0,0,0-.93,1.53,31.29,31.29,0,0,0-.28,6.64,3.66,3.66,0,0,0,.94,2.14,3.3,3.3,0,0,0,2.26.9,16.09,16.09,0,0,0,8.85-2c2.23-1.29,3.71-2.93,3.71-4.62a5.71,5.71,0,0,0-2.46-4.9A9.57,9.57,0,0,0,323.13,231.49Zm0,1.34a8.34,8.34,0,0,1,4.43,1.23,4.26,4.26,0,0,1,1.89,3.81c0,.78-1.05,2.31-3.05,3.47a14.8,14.8,0,0,1-8.11,1.84,1.93,1.93,0,0,1-1.38-.5,2.44,2.44,0,0,1-.57-1.41,32.77,32.77,0,0,1,.29-6.31c0-.14.12-.36.45-.63a5.07,5.07,0,0,1,1.45-.78A12.56,12.56,0,0,1,323.09,232.83Zm-.29,20.52a14.52,14.52,0,0,0-4,.44c-4.6.84-4.21,5.58-3.68,9.33a4.59,4.59,0,0,0,1.13,2.56,3.9,3.9,0,0,0,2.74,1.09c4.32.18,7.2.18,10-.82s4.64-2.84,4.78-5.48a5.61,5.61,0,0,0-2.86-5.14,14.56,14.56,0,0,0-6.34-1.88C323.94,253.39,323.37,253.36,322.8,253.35Zm0,1.34c.54,0,1.08,0,1.62.08a13.59,13.59,0,0,1,5.75,1.68,4.14,4.14,0,0,1,2.23,3.95c-.1,2.07-1.41,3.39-3.89,4.29s-5.24.93-9.46.75a2.5,2.5,0,0,1-1.84-.69,3.24,3.24,0,0,1-.77-1.84c-.49-3.42-1.09-6.66,2.65-7.82A13.3,13.3,0,0,1,322.78,254.69Z" transform="translate(-40.27 -187.2)"/><path id="path4890-2" class="cls-7" d="M324.69,222.66l.31,3.86Zm2.84.8-2.5,2.95Zm-5.41.65,2.94,2.5ZM329,226l-3.85.31Zm-3.74.34,2.94,2.5Zm.06.09.31,3.86Zm0,.11-2.51,2.95Zm-.1.06-3.85.31Zm11.36,5.71-.12,3.87Zm2.74,1.1-2.82,2.66Zm-5.46.06,2.65,2.81Zm2.74,2.55,3.87.11Zm.11,0,2.64,2.81Zm0,.1-.13,3.87Zm-4,.05,3.86.11Zm4,.06L333.85,239Zm1.74,21,.91,3.74Zm2.92.35-2,3.28Zm-5.23,1.47,3.3,2Zm7.06.84-3.74.9Zm-3.63.91,3.3,2Zm.08.08.91,3.74Zm0,.12-2,3.28Zm-.09.07-3.75.9ZM322.63,269l.82,3.4Zm2.65.3-1.82,3Zm-4.74,1.37,3,1.81Zm6.39.73-3.39.83Zm-3.29.84,3,1.81Zm.07.08.82,3.39Zm0,.1-1.82,3Zm-.08.07-3.39.83Z" transform="translate(-40.27 -187.2)"/></g><g id="g10649"><path id="path5365" class="cls-3" d="M136.29,226.53c-4.65,0-9.25-1.75-12.66,5.33-1.93,4-.66,8.85-.84,13.27,0,9.92-.28,19.86.15,29.77,0,5.22,5,9.42,10.06,9.14,9.1.1,18.22.23,27.31-.09,2.77-.34,7.09-1.72,8.79-5.24,1.51-2.87-.68-5.35-2.87-7.68-3.66-3.55-9.25-2.84-13.86-2.7-4.07.09-8,.14-12,0-.21-8.43,4.91-6.23,7.72-6.25,4-.08,8.14.43,12.06-.64a7,7,0,0,0,5.43-7.09c.14-3-1.52-6.4-4.75-6.9-5.53-1.35-11.29-.59-16.92-.74-1.06-.37-3.81.93-3.38-.9.05-1.2,1.13-.64,1.19-1.84.55-1.79,2.71-1.79,4.54-1.78,5.37,0,10.74.12,16.08-.29a7,7,0,0,0,5.24-8.51c-.74-4.09-4.82-6.83-8.86-6.68-7.54-.23-14.9.22-22.4-.17Z" transform="translate(-40.27 -187.2)"/><path id="path4870" class="cls-4" d="M138.09,224.05c-4.65,0-10,1.15-12.66,5.33-1,4.34-.66,8.85-.83,13.27,0,9.92-.29,19.86.14,29.77,0,5.22,5,9.42,10.06,9.14,9.1.1,18.22.23,27.31-.09a10.85,10.85,0,0,0,7.4-3.85,8.25,8.25,0,0,0-1.48-9.07c-3.66-3.55-9.25-2.84-13.86-2.7-4.38.93-8.29,1.33-10.55-.16-3.56-2.36-3-7.31,6.24-6.1,4-.08,8.15.43,12.06-.64a7,7,0,0,0,5.43-7.09c.14-3-1.51-6.4-4.75-6.9-5.53-1.35-11.29-.59-16.92-.74-5.05.84-5.31-4.51.39-4.52,6,0,12.05.18,18-.29a7,7,0,0,0,5.24-8.51c-.74-4.09-4.82-6.83-8.85-6.68-7.55-.23-14.91.22-22.41-.17Z" transform="translate(-40.27 -187.2)"/><path id="path5330" class="cls-5" d="M138.09,224.05l-1,0a.76.76,0,0,1-.26.08.42.42,0,0,1-.15-.06l-.72.05c.23.51.43,1.21.3,1.42s0,.25.24.25.52-.28.68-.62c.3-.61.3-.61.32.13s.52,1,1.52.6c.63-.25.54-.6-.41-1.55a4.76,4.76,0,0,0-.36-.33Zm3.29.09h0a.57.57,0,0,0,.27.43c.15.1.28,0,.28-.25a.85.85,0,0,0,0-.17Zm12.66,0h-.62c.06.32.2.55.41.55s.16-.24.21-.55Zm-10.68,0c0,.11.13.24.37.45a1.19,1.19,0,0,1,.48.89,1.32,1.32,0,0,0,.18.81c.4.62,1.13-.15,1.13-1.2,0-.5-.09-.75-.36-1Zm5.16,0h-1a.88.88,0,0,0,0,.24.55.55,0,0,0,1.1,0,.88.88,0,0,0,0-.24Zm12.29,0c-.08.18.06.47.33.67.56.41.84.11.56-.61h0a8.85,8.85,0,0,0-.89-.05Zm-10.23,2a.84.84,0,0,0-.36.11c-.42.26-.14.84.39.84s.76-.75.32-.92A.67.67,0,0,0,150.58,226.25Zm-6,.67c-.07,0-.13.12-.13.28a.29.29,0,0,0,.3.27c.16,0,.21-.12.12-.27S144.6,226.92,144.54,226.92Zm-1.08.55c-.06,0-.19.13-.29.28s0,.28.12.28a.29.29,0,0,0,.29-.28C143.58,227.6,143.53,227.47,143.46,227.47Zm-5.4.15a7.13,7.13,0,0,0,.95,1.1c.89.92,1,.94,1.13.39a1.2,1.2,0,0,0,.09-.66A8.58,8.58,0,0,0,138.06,227.62Zm18.4.22c-.13-.06-.17.07-.17.46s.07.59.33.33.26-.4,0-.66A1.13,1.13,0,0,0,156.46,227.84Zm-12,.29a.58.58,0,0,0-.59.22c-.18.19-.34.24-.34.11s-.2-.06-.45.15-.49.31-.58,0c-.2-.59-1-.38-1.35.34s-.26.69.19.69a1,1,0,0,1,.77.47c.24.43.29.43.72,0,.58-.58,1-.6,1-.05s.74.5,1.23-.2c.35-.51.36-.69.06-1.16a1.41,1.41,0,0,0-.64-.61Zm2,.63c-.1,0-.16.18-.23.43-.21.81-.05.91.66.41s.59-.43.05-.72c-.23-.12-.38-.17-.48-.12Zm8.72.65c-.66,0-.85.12-.85.54,0,.59.64.5,1.33-.18C156,229.47,155.9,229.41,155.2,229.41Zm-26.95.29c-.09,0-.13.05-.13.23s.21.32.46.42.39.1.1-.25a1.36,1.36,0,0,0-.43-.4Zm30.43.32a.56.56,0,0,0-.27.11c-.29.3-.23,1.48.09,1.48.15,0,.27.25.27.56s.17.55.38.55c.57,0,.46-2.59-.12-2.7a1,1,0,0,0-.35,0Zm-6.55.53c-.18-.06-.28,0-.22.22s.2.32.31.31C152.55,231.05,152.49,230.67,152.13,230.55Zm15.06.22-.34.76c-.3.66-.28.82.18,1.29s1.41.45,1.41-.21a2.39,2.39,0,0,0-.63-1.12Zm-.84.29c-.07,0-.12.13-.12.28a.28.28,0,0,0,.29.27c.16,0,.22-.12.12-.27s-.22-.28-.29-.28Zm-2.09,1c-.19,0-.24.12-.24.55,0,.6.12.7.83.7s.82-.12.82-.57-.13-.53-.34-.45a1.29,1.29,0,0,1-.83-.13l-.24-.1Zm-30,1.35a.11.11,0,0,0-.1.12c0,.42,1,1.22,1.21.94s-.11-.56-.87-1a.36.36,0,0,0-.24-.07Zm-7.48.2a.82.82,0,0,0-.71.15c-.31.31.36,1.21.9,1.21.7,0,1-.48.55-1A1.18,1.18,0,0,0,126.82,233.57Zm41.77,1.64c-.24,0-.43.12-.43.27a.28.28,0,0,0,.26.28.6.6,0,0,0,.43-.28C168.94,235.33,168.83,235.21,168.59,235.21Zm-42.71,0c-.17,0-.35.21-.53.56h0c-.22.42-.22.66,0,.88.42.43,1.21-.39,1-1-.12-.31-.27-.46-.43-.44Zm10.2.8c-.13,0-.23.18-.23.39,0,.38,1.1.82,1.37.55S136.44,236,136.08,236Zm-6,.83c-.16,0-.29.36-.29.81a4.27,4.27,0,0,1-.18,1.26c-.12.31,0,.5.42.6a.8.8,0,0,1,.61.61c0,.37.05.38.18,0a1.53,1.53,0,0,1,.35-.55,1.21,1.21,0,0,0,.14-1.65c-.23-.19-.42-.26-.42-.14s-.18,0-.41-.14-.34-.45-.26-.58,0-.25-.14-.25Zm-1.65.55a.62.62,0,0,0-.44.28c-.09.15,0,.28.26.28s.43-.13.43-.28a.27.27,0,0,0-.25-.28Zm7.71.28a.28.28,0,1,0,.28.28A.28.28,0,0,0,136.13,237.69Zm-3.76,1.43c-.06,0-.09.17-.08.39s.08.39.16.16a.54.54,0,0,0,0-.52.06.06,0,0,0-.06,0Zm22.74.25-.41.16a.65.65,0,0,0-.27.19h.74c0-.18,0-.35-.06-.34Zm-29.68.83c-.13,0-.32.06-.57.31a1.31,1.31,0,0,0-.22.29c0,.11,0,.23,0,.34a.61.61,0,0,0,.46.14.49.49,0,0,0,.55-.55c0-.32-.07-.49-.21-.53Zm9.86.25c-.16,0-.22.12-.13.28s.23.27.3.27.12-.12.12-.27A.28.28,0,0,0,135.29,240.45Zm-4,1a.28.28,0,0,0-.25,0c-.34.34-.19.5.52.54.39,0,.67,0,.62,0l-.52-.38a1.19,1.19,0,0,0-.37-.19Zm.12,1a.82.82,0,0,0-.71.3c-.13.21,0,.24.39.12s.59-.07.59.09-.25.35-.55.45c-.49.16-.8.69-.39.69s1.39-1,1.29-1.31A.63.63,0,0,0,131.44,242.39Zm24.86,1.78v.06a.79.79,0,0,0,.33.73c.28.11.28.15,0,.16a.44.44,0,0,0-.34.46c0,.31.21.4.76.34a.87.87,0,0,0,.49-1.59.63.63,0,0,0-.14-.09l-.27,0a.33.33,0,0,0,0,.12c0,.2-.14.13-.36-.14l-.45,0Zm-12.05.06-.61.06c.37.71.88.81.62,0v0Zm-5.44,0c-.12,0-.19,0-.19.07,0,.24,1.07.67,1.24.5s-.21-.24-.58-.41a1.73,1.73,0,0,0-.47-.16Zm14.52.09c-.05,0-.07.09-.07.27a1.11,1.11,0,0,0,1.28,1.19c.65-.17.6-.78-.08-1-.23-.09-.34,0-.24.11.29.48-.2.3-.59-.21-.15-.2-.24-.31-.3-.32Zm-11.69,1.36c-.13,0-.31.27-.42.61s-.07.65.08.7.23.42.18.84,0,.53.06.28a1.2,1.2,0,0,1,.72-.65c.44-.14.48-.24.2-.42s-.29-.32-.18-.42-.28-.94-.64-.94Zm5.58.16c-.13-.07-.22.4-.21,1,0,1.19,0,1.19.68.77s.6-.46.2-.75a1.06,1.06,0,0,1-.44-.62A.57.57,0,0,0,147.22,245.86Zm-12.87.66a.75.75,0,0,0-.57.28c-.09.15.09.28.4.28s.57-.13.57-.28S134.57,246.52,134.35,246.52Zm9.08.28c-.07,0-.12.13-.12.28a.28.28,0,0,0,.29.27c.16,0,.22-.12.12-.27s-.22-.28-.29-.28Zm13.22.1c-.07,0-.14,0-.2.13a.35.35,0,0,0,.13.47c.42.26.7-.09.34-.45a.41.41,0,0,0-.27-.15Zm-3.68.18a.28.28,0,0,0-.27.29c0,.16.12.22.27.12s.28-.22.28-.29S153.13,247.08,153,247.08Zm1.09,0c-.14,0-.26,0-.26.24s.18.31.4.39.35,0,.25-.24A.62.62,0,0,0,154.06,247.09Zm-17.24,0c-.12,0-.14.12-.06.34s0,.5-.37.61c-.53.17-.73.82-.33,1s1.86.49,1.57.28a1.74,1.74,0,0,1-.28-1.16c0-.58-.13-1-.37-1.08l-.16,0Zm-1.1.25c-.23,0-.42.13-.42.28s.19.28.42.28.41-.13.41-.28S135.94,247.35,135.72,247.35Zm16.32,0a1,1,0,0,0-.7.37c-.24.29-.23.41,0,.51.52.19,1-.06,1-.5a.35.35,0,0,0-.38-.38Zm-2.85,0c-.09,0-.17.15-.32.44-.39.72-.12,1.5.48,1.39s.69-.79.22-1.45C149.38,247.53,149.28,247.4,149.19,247.4Zm9.75.82c-.13,0-.17.15-.13.39a.91.91,0,0,0,.47.62c.24.08.34-.06.28-.37a.88.88,0,0,0-.47-.62.44.44,0,0,0-.15,0Zm-33.85.51a.27.27,0,0,0-.28.27.59.59,0,0,0,.28.43c.15.09.27,0,.27-.26S125.24,248.73,125.09,248.73Zm2.08,0c-.06,0-.2.13-.29.28s0,.28.12.28a.29.29,0,0,0,.29-.28C127.29,248.86,127.24,248.73,127.17,248.73Zm17.13.3c-.07,0-.17.05-.29.24a.32.32,0,0,0,.12.43c.16.09.28,0,.28-.26s0-.38-.11-.41Zm17.36.26a.4.4,0,0,0-.4.41c0,.23.11.42.24.42s.32-.19.41-.42S161.91,249.29,161.66,249.29Zm-30,0c-.06,0-.22.11-.46.41-.42.49,0,1,1,1.34.79.24,1.63-.56,1.17-1.11s-.9-.5-.71,0-.45.77-1,.53c-.31-.11-.34-.28-.13-.68s.22-.49.16-.5Zm23.1,1.39c-.05,0-.1.06-.18.19s-.08.33.08.33c.48,0,.34,1.15-.18,1.53s-.55.26-1-.2c-.54-.62-1.3-.43-.78.19.21.25.21.42,0,.54a.64.64,0,0,0-.29.46c0,.15.13.2.28.1s.27-.05.27.1c0,.45.83.6,1.4.25a1.28,1.28,0,0,0,.54-.94.83.83,0,0,1,.41-.75.69.69,0,0,0,.42-.58c0-.23.13-.42.3-.42s.21-.13,0-.42-.45-.34-.7-.13-.38.2-.47,0-.08-.2-.13-.2Zm-13.78,0c-.06,0-.09.17-.08.39s.07.38.16.16a.56.56,0,0,0,0-.53s0,0-.06,0Zm25.29,0a5.67,5.67,0,0,0-1.17.11h0c-.26.07-.48.25-.48.4a1.39,1.39,0,0,1-.42.69c-.55.56-.25,1,.44.64.37-.2.53-.2.53,0s-.31.43-.7.61-.6.38-.34.54c.56.35,1,.27,1-.18,0-.23.14-.42.31-.42s.23.19.15.42c-.18.46.24.57.51.13a.34.34,0,0,1,.45-.11c.22.13.53,0,.74-.29a6.16,6.16,0,0,0,.07-1.43,7,7,0,0,0,0-1,4.53,4.53,0,0,0-1.1-.1Zm-8,.22a3.12,3.12,0,0,0-1.32.4c-.81.36-.85.44-.55,1.08.18.39.48.7.67.7s.34.33.34.72c0,.61.1.7.61.57a1.31,1.31,0,0,1,1,.17c.34.28.37.25.21-.18s-.08-.47.22-.35c.52.2.74-.15.41-.66-.16-.26-.25-.29-.26-.07,0,.42-.77.16-1.47-.5-.48-.45-.49-.51,0-1.19.27-.42.34-.64.16-.69Zm-27,.25c-.06,0-.12.12-.12.28a.28.28,0,0,0,.29.27c.16,0,.22-.12.12-.27s-.22-.28-.29-.28Zm9,.28c-.15,0-.27.18-.27.41s.12.42.27.42.28-.19.28-.42S140.42,251.5,140.27,251.5Zm13.31,0s0,.18.21.48.41.57.5.48-.06-.38-.33-.65S153.6,251.5,153.58,251.52Zm12.22.53c.23,0,.43.12.43.28a.27.27,0,0,1-.26.27.57.57,0,0,1-.43-.27C165.44,252.17,165.56,252.05,165.8,252.05Zm-14.91.28c-.07,0-.13.12-.13.27a.3.3,0,0,0,.3.28c.16,0,.21-.13.12-.28s-.23-.27-.29-.27Zm-18.07.27a.28.28,0,0,0-.28.29c0,.17.12.22.28.13s.27-.23.27-.3-.12-.12-.27-.12Zm4.81.11c-.07,0-.12,0-.12.06a1.69,1.69,0,0,0,.41.56c.36.36.42.36.42,0a.67.67,0,0,0-.42-.56.71.71,0,0,0-.29-.07Zm-1.07.44c-.07,0-.2.13-.29.28s0,.28.12.28a.29.29,0,0,0,.29-.28C136.68,253.28,136.63,253.15,136.56,253.15Zm-10.92.28a.28.28,0,1,0,0,.55.28.28,0,0,0,0-.55Zm7,.29c-.4,0-.38.07.08.26.3.13.4.25.21.26-.43,0-.46.74,0,1a.51.51,0,0,0,.58-.09C133.81,254.76,133.2,253.7,132.6,253.72Zm-6.27.69a.25.25,0,0,0-.24,0,.51.51,0,0,0,.37.91c.31,0,.56-.11.56-.24S126.62,254.49,126.33,254.41Zm27.8.4a3.32,3.32,0,0,0-.86,1c-.52.77-.59,1-.32,1.31s.29.24.16-.11,0-.43.52-.32.73,0,.88-.57,0-1.29-.38-1.29Zm-24.44.55a.74.74,0,0,0-.59.27.56.56,0,0,1-.62.09c-.28-.11-.38-.06-.27.12a1.64,1.64,0,0,0,.88.42c.39.07.64.07.56,0s0-.31.17-.52.2-.37-.13-.37Zm29.18.21c-.51,0-1.05.07-1.14.29s.14.62.52.91c.89.69,1.07.65,1.07-.18,0-.4.12-.63.28-.54s.28.06.28-.09-.5-.36-1-.39Zm4.59.34c-.51,0-.58.08-.33.34s.41.25.67,0S164,255.91,163.46,255.91Zm-25.29,0c-.07,0-.11.17-.11.42s.13.35.28.25a.32.32,0,0,0,.13-.43Q138.29,255.89,138.17,255.93Zm1.15.26c-.07,0-.2.13-.29.28s0,.27.12.27a.28.28,0,0,0,.29-.27c0-.15-.05-.28-.12-.28Zm1.66,0a.73.73,0,0,0-.57.28c-.09.15.08.27.4.27s.57-.12.57-.27S141.2,256.19,141,256.19Zm-7.17.11c-.09,0-.16.11-.16.29s.12.43.27.43a.28.28,0,0,0,.28-.26.6.6,0,0,0-.28-.43s-.07,0-.11,0Zm2.92.05a.72.72,0,0,0-.29.21c-.33.41-.15.73.43.73.41,0,.5-.71.12-.94A.29.29,0,0,0,136.73,256.35Zm-11.09.94c-.15,0-.35.31-.44.69h0c-.1.38-.25.69-.35.69s-.21.37-.24.82.07.83.21.83h.47c.12,0,.21-.28.22-.62s.18-.61.46-.59.4-.11.19-.82c-.13-.48-.25-.9-.25-.93S125.79,257.29,125.64,257.29Zm2.88,1.42c-.12,0-.12.17-.12.45s.23.49.83.51c1,0,1.08-.36.12-.72a2.13,2.13,0,0,0-.83-.24Zm13.64,1.36a.25.25,0,0,0,0,.09.58.58,0,0,0,0,.41C142.13,260.41,142.14,260.24,142.16,260.07Zm-10.68.26c-.13,0-.23.47-.21,1,0,.95.1,1,.9,1.12s.86,0,.73-.48a1.14,1.14,0,0,0-.67-.72.73.73,0,0,1-.52-.56C131.71,260.51,131.61,260.33,131.48,260.33Zm10.58,4.42c-.34,0-.37.11-.13.55a1.24,1.24,0,0,0,.23.3c0-.28.05-.55.06-.83l-.16,0Zm-9,.14c-.15,0-.24.1-.24.28a.41.41,0,0,0,.41.41c.23,0,.42-.11.42-.25s-.19-.32-.42-.4a.38.38,0,0,0-.17,0Zm23.32.88-1.93.07h0a.41.41,0,0,1,.42.39c0,.24.26.37.69.35s.69-.21.69-.49a.86.86,0,0,1,.09-.33Zm-21,1.59c-.09,0-.12.1-.12.25,0,.52.73,1.1,1.1.87s.14-.6-.56-1c-.21-.11-.34-.16-.42-.14Zm18.66.15c-.31,0-.55.1-.55.23,0,.39.31.57.71.41C154.82,267.93,154.71,267.51,154.08,267.51Zm-4.07.32-.81.15c-.58.11-1.09.84-.79,1.14.08.07.15,0,.15-.18a.3.3,0,0,1,.27-.32c.15,0,.28.18.28.41,0,.55.72.53.94,0s.21-1.23,0-1.18Zm-19.36.58a2.28,2.28,0,0,0-1.15.21c-.3.19-.1.26.76.27.65,0,1.18-.1,1.18-.22S131.07,268.42,130.65,268.41Zm8.57,0c-.84,0-1.06.1-.94.4s0,.35-.35.21-.44-.12-.15.22a1.06,1.06,0,0,0,.93.31c.33-.07.69-.12.8-.14s.21-.19.21-.41a.54.54,0,0,1,.29-.49c.17-.05-.19-.1-.79-.1Zm2.57.49c-.46,0-.61.06-.34.13a1.54,1.54,0,0,0,.83,0c.19-.07,0-.13-.49-.12Zm-5.7.24c-.05,0-.21.06-.51.24s-.33.33-.24.42.32,0,.51-.26S136.13,269.22,136.09,269.19Zm-5.76.07c-.45,0-.87.18-1,.41a.61.61,0,0,0,0,.55c.08.08.14,0,.14-.23s.08-.31.33-.05c.46.46.71.42,1-.17.23-.44.16-.51-.53-.51Zm-4.41.89-.49.06a.63.63,0,0,0-.62.63c0,.68.14.67.85,0,.5-.49.6-.65.26-.65Zm15.18,1c-.42,0-.56.14-.5.48a.5.5,0,0,0,1,0C141.66,271.24,141.52,271.1,141.1,271.1Zm14.2.28c-.06,0-.12.12-.12.27a.29.29,0,0,0,.3.28c.16,0,.21-.12.12-.28S155.37,271.38,155.3,271.38Zm-20.24.34s0,0,0,.07a1.61,1.61,0,0,0,.26.69c.15.23.27.29.27.14a1.65,1.65,0,0,0-.27-.69c-.11-.17-.2-.25-.24-.21Zm-4.05.49c-.07,0-.13.12-.13.27a.3.3,0,0,0,.3.28c.16,0,.21-.13.12-.28S131.07,272.21,131,272.21Zm-5.26.27c-.25,0-.39.19-.34.46.13.69.78.79.78.12,0-.34-.18-.58-.44-.58Zm21.15,0a.28.28,0,1,0,.28.28A.28.28,0,0,0,146.9,272.48Zm14.22,0c-.25,0-.42.13-.36.3a.43.43,0,0,0,.36.3.44.44,0,0,0,.36-.3C161.53,272.61,161.37,272.48,161.12,272.48Zm-17.45.2a2.07,2.07,0,0,0-.55.17,1.25,1.25,0,0,0-.6,1.79c.19.52.39.6,1.27.51s1.06-.23,1.13-.69.2-.6.34-.6c.46,0,.27-.76-.23-.9l-.89-.27a1,1,0,0,0-.47,0Zm.21.63a.27.27,0,0,1,.26.28c0,.15-.19.27-.43.27s-.36-.12-.26-.27A.56.56,0,0,1,143.88,273.31Zm3.42.16c-.11,0-.17.11-.25.31-.21.55.27.89,1,.71s.66-.2-.14-.72A1.41,1.41,0,0,0,147.3,273.47Zm-5.66.12c-.16,0-.22.12-.13.27s.23.28.3.28.12-.13.12-.28a.28.28,0,0,0-.29-.27Zm-12.95.55a1,1,0,0,0-.71.27c-.09.16.14.28.54.28s.71-.12.71-.28S129,274.14,128.69,274.14Zm32.29,0a.28.28,0,0,0,0,.55.28.28,0,1,0,0-.55Zm-9.38,0a.54.54,0,0,0-.43.28c-.1.16-.12.37,0,.45s.74-.16.74-.48a.23.23,0,0,0-.27-.25Zm12.15.28a1.37,1.37,0,0,0-.85.41c-.25.31-.27.51-.05.73s1.28.07,1-.32c-.09-.16,0-.28.12-.28a.29.29,0,0,0,.29-.28c0-.21-.24-.3-.54-.26Zm-10.63.74c-.13,0-.24.15-.39.4-.29.46-.27.64.13,1.08.65.72,1.13.66,1.28-.16a.91.91,0,0,0-.47-1.08c-.27-.17-.42-.26-.55-.24Zm-11.86.37a.59.59,0,0,0-.25.16c-.38.38-.17.84.52,1.16.88.4.86.4,1.06-.13.12-.31,0-.4-.22-.29s-.44-.07-.53-.39S141.51,275.46,141.26,275.54Zm-13.54.26c-.52,0-.68.19-.83,1-.26,1.37.16,1.69,1.08.83S128.74,275.8,127.72,275.8Zm36.85.27a.29.29,0,0,0-.28.28.28.28,0,0,0,.56,0A.29.29,0,0,0,164.57,276.07Zm-20.43.28a.27.27,0,0,0-.28.27.28.28,0,1,0,.55,0A.27.27,0,0,0,144.14,276.35Zm-13.82,0c-.18-.06-.28,0-.22.22.11.36.49.42.53.09C130.64,276.59,130.5,276.45,130.32,276.39Zm15.2.52a.52.52,0,0,0-.42.27c-.09.15,0,.35.27.45.53.2.83,0,.57-.44A.52.52,0,0,0,145.52,276.91Zm19.1.13a1,1,0,0,0-.33.14c-.21.13-.33.31-.26.38s.32,0,.54-.11.34-.3.26-.38A.23.23,0,0,0,164.62,277Zm-34.29.51c-.61,0-1.1.08-1.1.21a.27.27,0,0,0,.29.25c.17,0,.1.19-.14.43s-.37.55-.29.68c.22.35,1,0,1-.46,0-.21.31-.51.69-.65C131.68,277.65,131.62,277.59,130.33,277.55Zm35.14.75c-.05,0-.1.09-.16.19a1.21,1.21,0,0,0,.11.76c.19.48.22.45.24-.21s-.06-.82-.19-.74Zm-30.23,0s-.67.44-1.39.95c-1.17.82-1.25.93-.74,1.1.32.1.65.11.74,0s.34,0,.55.17.45.23.64-.07a.53.53,0,0,0,0-.66c-.4-.41-.31-1,.15-1a.49.49,0,0,1,.42.54c0,.32.18.56.43.56s.42.22.39.62a3.27,3.27,0,0,0,0,1h.68a1.63,1.63,0,0,1,.54,0c.41.07.47,0,.29-.42a4.07,4.07,0,0,1-.24-1.23c0-.49-.14-.68-.39-.59a1.72,1.72,0,0,1-1.16-.45,4.07,4.07,0,0,0-.88-.56Zm15.8.53a.62.62,0,0,0-.43.29c-.28.46.36,1,.74.61A.52.52,0,0,0,151,278.84Zm5.4.55c-.07,0-.2.12-.29.27s0,.28.12.28a.29.29,0,0,0,.29-.28c0-.15-.05-.27-.12-.27Zm-26.82.29c-.32,0-.39.08-.17.17a.56.56,0,0,0,.53,0c.09-.09-.07-.16-.36-.15Zm13.83,1a.25.25,0,0,0-.24,0,.51.51,0,0,0,.37.91c.31,0,.56-.1.56-.24S143.74,280.72,143.45,280.64Zm5.27.23c-.09,0-.16.12-.16.3s.12.42.27.42a.27.27,0,0,0,.28-.25.62.62,0,0,0-.28-.44.23.23,0,0,0-.11,0Zm-14.54.45a.27.27,0,0,0-.25.25h.65A.57.57,0,0,0,134.18,281.32Z" transform="translate(-40.27 -187.2)"/><path id="path5379" class="cls-8" d="M136.59,227.46c-2.5,0-5,.51-6.81,2.45-1.66,1.76-2,4.13-2,6.5s.41,4.82.35,6.87c-.29,10-.8,20.07.26,30.07a4.73,4.73,0,0,0,3.22,3.88,12.85,12.85,0,0,0,5.16.73c8.89-.33,18,.8,26.95-.5a3.29,3.29,0,0,0,2.36-1.4,3.55,3.55,0,0,0,.51-2.44,4.47,4.47,0,0,0-3.38-3.81c-4.14-.9-8.33-.22-12.31-.35-3.27-.1-6.66.61-9.34-.52a4.11,4.11,0,0,1-2.38-2.79,19.87,19.87,0,0,1-.64-4.3,5.53,5.53,0,0,1,5.42-6.08c5.66.14,11.62,1.11,17.36-.33a3.23,3.23,0,0,0,2.08-1.61A4,4,0,0,0,160,248c-6.37-.1-12.73.61-18.81-.62-1.47-.3-2.11-1.35-2.4-2.81A12.06,12.06,0,0,1,139,240a4.38,4.38,0,0,1,2.77-3.19,10.84,10.84,0,0,1,4.81-.69c5.74.34,11.87,1.17,17.56-.51a2.74,2.74,0,0,0,1.9-1.83,4,4,0,0,0-.23-2.55,4.93,4.93,0,0,0-4.07-3.3c-5.94-.23-11.91-.32-17.88-.16-2.17.07-4.74-.34-7.23-.31Zm0,1.22c2.35,0,4.91.38,7.26.31,5.92-.17,11.87-.07,17.8.16a3.9,3.9,0,0,1,3,2.53,2.89,2.89,0,0,1,.19,1.76,1.39,1.39,0,0,1-1.07,1c-5.36,1.58-11.35.8-17.14.46a11.85,11.85,0,0,0-5.37.8,5.68,5.68,0,0,0-3.48,4,13.13,13.13,0,0,0-.19,5.11,4.41,4.41,0,0,0,3.36,3.76c6.33,1.29,12.77.55,19,.64a2.62,2.62,0,0,1,2.63,2.31,2.76,2.76,0,0,1-.23,1.7,1.93,1.93,0,0,1-1.31,1c-5.42,1.37-11.26.45-17,.3a6.75,6.75,0,0,0-6.66,7.4,19.69,19.69,0,0,0,.69,4.57,5.44,5.44,0,0,0,3.06,3.54c3.17,1.34,6.73.52,9.78.62,4.14.13,8.24-.52,12.09.32a3.28,3.28,0,0,1,2.43,2.78,2.38,2.38,0,0,1-.31,1.61,2,2,0,0,1-1.53.86c-8.76,1.27-17.8.16-26.81.5a12.16,12.16,0,0,1-4.67-.65,3.4,3.4,0,0,1-2.46-2.88c-1-9.88-.54-19.9-.25-29.9.07-2.22-.32-4.67-.35-6.92s.29-4.24,1.62-5.65C132.19,229.13,134.25,228.7,136.6,228.68Zm-2.9,1.47a.52.52,0,0,0-.51.56v.06l.35,2.59-2-1.5a.55.55,0,0,0-.35-.12.54.54,0,0,0-.52.56.55.55,0,0,0,.22.42l2.08,1.57-2.47.35a.54.54,0,0,0-.47.61.55.55,0,0,0,.61.46l2.59-.36-1.51,2a.55.55,0,0,0,.09.76.54.54,0,0,0,.76-.1h0l1.58-2.08.34,2.46a.54.54,0,0,0,.57.51.54.54,0,0,0,.51-.57s0-.06,0-.08l-.35-2.59,2,1.5a.55.55,0,0,0,.76-.09.54.54,0,0,0-.1-.76h0l-2.07-1.58,2.47-.34a.54.54,0,0,0-.11-1.08h0l-2.59.35,1.51-2a.54.54,0,0,0-.46-.87.57.57,0,0,0-.4.21l-1.58,2.09-.33-2.47a.54.54,0,0,0-.57-.47Zm.41,9.54a.55.55,0,0,0-.52.57h0l.2,6.59a.55.55,0,0,0,1.09,0,.09.09,0,0,0,0-.05l-.2-6.6a.54.54,0,0,0-.55-.53Zm1.22,8.31h-.06a.55.55,0,0,0-.49.53l-.08,2.62-1.7-1.82a.55.55,0,0,0-.44-.17.54.54,0,0,0-.5.58.58.58,0,0,0,.15.34L134,252l-2.48-.07h-.06a.54.54,0,0,0,0,1.08h0l2.61.08-1.81,1.71a.54.54,0,1,0,.73.8h0l1.9-1.79-.08,2.49a.55.55,0,0,0,.53.56.55.55,0,0,0,.56-.53l.07-2.62,1.7,1.82a.54.54,0,0,0,.77,0,.53.53,0,0,0,0-.76l-1.78-1.91,2.48.08a.55.55,0,0,0,.56-.53.55.55,0,0,0-.53-.56l-2.6-.07,1.81-1.72a.54.54,0,0,0,0-.76.55.55,0,0,0-.4-.18.55.55,0,0,0-.38.16l-1.89,1.79.07-2.5a.54.54,0,0,0-.52-.56Zm-.93,9.77a.54.54,0,0,0-.49.54l-.12,6.11a.55.55,0,0,0,.5.58.54.54,0,0,0,.58-.5v-.06l.12-6.11a.54.54,0,0,0-.52-.56h-.07Zm-.51,8.18a.55.55,0,0,0-.49.59h0l.21,2.61-1.9-1.63a.51.51,0,0,0-.34-.13.54.54,0,0,0-.56.52.57.57,0,0,0,.2.44l2,1.69-2.48.19a.54.54,0,1,0,.07,1.08h0l2.6-.19L131.59,273a.54.54,0,0,0,0,.77.55.55,0,0,0,.77,0l0,0,1.7-2,.19,2.48a.54.54,0,0,0,.56.52.55.55,0,0,0,.53-.56.06.06,0,0,1,0,0l-.2-2.6,1.89,1.62a.55.55,0,0,0,.77,0,.54.54,0,0,0,0-.76l0,0-2-1.7,2.48-.19a.54.54,0,0,0,.49-.58.53.53,0,0,0-.54-.5h0l-2.61.2,1.62-1.89a.54.54,0,0,0,0-.77.59.59,0,0,0-.36-.13.53.53,0,0,0-.41.19l-1.7,2-.2-2.48a.55.55,0,0,0-.54-.51Z" transform="translate(-40.27 -187.2)"/></g></g><g id="Layer_2" data-name="Layer 2"><g id="Layer_2-2" data-name="Layer 2"><path class="cls-9" d="M86.66,284.38c0-2.69-.08-5.38,0-8.06.18-5.26.44-10.52.72-15.77.12-2.17.06-1.79,2.06-1.82a22.78,22.78,0,0,1,3.2,0c3.78.48,7.58.13,11.37.24.54,0,.66.26.63.69-.15,1.77-.29,3.54-.44,5.3s-.28,3.8-.48,5.69-.45,3.51-.64,5.26c-.13,1.12-.15,2.25-.3,3.36-.42,2.93-2.23,4.94-5,6.35a19.6,19.6,0,0,1-5,1.5,26.9,26.9,0,0,1-5.52.33c-.59,0-.8-.21-.77-.75,0-.78,0-1.56,0-2.35Z" transform="translate(-40.27 -187.2)"/><path class="cls-9" d="M77.17,258.68h8.46c.79,0,.91.15.88,1-.18,4.73-.33,9.46-.52,14.18a74.24,74.24,0,0,1-.47,8.19c-.25,1.62-.26,3.22-.38,4.83,0,.45-.22.63-.68.63H69.87c-.65,0-.79-.14-.81-.81,0-1.15,0-2.3-.14-3.45s-.3-2.3-.35-3.46c-.1-2.2-.11-4.4-.18-6.6-.06-1.89-.15-3.79-.23-5.68l-.33-7.86c0-.76.12-.91.88-.92Z" transform="translate(-40.27 -187.2)"/><path class="cls-9" d="M57.34,258.33h7.85c.68,0,.87.16.89.72.15,4,.28,8,.45,12,.16,3.58.38,7.15.53,10.73,0,1.19-.07,2.38-.06,3.57a18.25,18.25,0,0,0,.21,1.94c.05.43-.11.65-.58.64-2.53,0-5.08.22-7.58-.37a12.14,12.14,0,0,1-4.37-1.92,9.3,9.3,0,0,1-2.87-3,10.38,10.38,0,0,1-1.48-4.17c-.17-2.41-.44-4.81-.63-7.22-.19-2.17-.34-4.36-.51-6.53-.13-1.77-.28-3.53-.41-5.3-.07-1,0-1.06,1-1.06h7.6Z" transform="translate(-40.27 -187.2)"/><path class="cls-8" d="M93.3,254.39c-3.55-.11-7.12.23-10.67-.24a21.59,21.59,0,0,0-3,0c-1.56,0-1.79-.23-1.88.91h-29c-.9,0-.95.05-.88,1,.11,1.62.24,3.24.37,4.86.15,2,.29,4,.46,6,.19,2.21.43,4.42.58,6.63a9.66,9.66,0,0,0,1.36,3.83,8.25,8.25,0,0,0,2.65,2.74,11,11,0,0,0,4,1.78,23.68,23.68,0,0,0,5.64.34H77.16a1,1,0,0,0,.42.06,24.34,24.34,0,0,0,5.18-.32,17.4,17.4,0,0,0,4.74-1.47,8.1,8.1,0,0,0,4.65-6.21c.15-1.09.17-2.19.28-3.29.19-1.72.44-3.43.61-5.15s.3-3.71.45-5.56.27-3.46.41-5.19C93.93,254.65,93.81,254.41,93.3,254.39Z" transform="translate(-40.27 -187.2)"/><ellipse class="cls-10" cx="65.2" cy="67.76" rx="2.55" ry="1.32"/><path class="cls-10" d="M105.6,255.41H51c-1.33,0-2.67,0-4-.09a5.79,5.79,0,0,1-1.4-.32,1.22,1.22,0,0,1-.93-1.3,30,30,0,0,1,.07-4.14,26.15,26.15,0,0,1,1.11-4.12,21,21,0,0,1,3.07-5.81,50.62,50.62,0,0,1,4.13-5,34,34,0,0,1,7-5.52,27,27,0,0,1,6.52-3,12.65,12.65,0,0,1,1.28-.41.75.75,0,0,1,.65.26,5.44,5.44,0,0,0,3.3,2.63,16,16,0,0,0,7.3.8,14.84,14.84,0,0,0,4.08-1,6.91,6.91,0,0,0,2.45-2.07.79.79,0,0,1,1.09-.19c.84.37,1.72.64,2.56,1,1.12.5,2.22,1,3.31,1.6a35.71,35.71,0,0,1,6.73,4.78,31.74,31.74,0,0,1,5.44,6.13,29.71,29.71,0,0,1,3,5.91,21.58,21.58,0,0,1,1.3,7.83c0,1.33-.43,1.65-1.83,1.94a8.76,8.76,0,0,1-1.62,0ZM70.86,243.78c.17.55.29,1.11.51,1.63a3.72,3.72,0,0,0,4.4,2,10.35,10.35,0,0,0,2-1c1.65-1,3.23-2.18,4.89-3.19A3.83,3.83,0,0,0,83.8,238a3.69,3.69,0,0,0-4.9-1.4c-1.34.74-2.64,1.56-3.91,2.42a30.85,30.85,0,0,0-2.82,2.15A3.87,3.87,0,0,0,70.86,243.78Zm23.23,7.42a2.54,2.54,0,0,0,1.94-.71,7.66,7.66,0,0,0,2.06-2.94c.65-1.39,1.17-2.84,1.91-4.17a4.2,4.2,0,0,0-1.4-5.9,2.81,2.81,0,0,0-2.07-.47,4.6,4.6,0,0,0-3.67,2.93c-.65,1.59-1.33,3.16-2,4.73a11.89,11.89,0,0,0-.73,1.74,3.92,3.92,0,0,0,4,4.79ZM63.71,253a4.2,4.2,0,0,0,2.47-.71,6,6,0,0,0,1.12-1.41,3.12,3.12,0,0,0,.41-2.63,5.77,5.77,0,0,0-1.57-2.62c-1.36-1.42-2.78-2.78-4.18-4.15a3.6,3.6,0,0,0-3.62-1.13,3.69,3.69,0,0,0-2.9,2.46,3.89,3.89,0,0,0,1,4.08c1.56,1.56,3.06,3.17,4.59,4.76A4,4,0,0,0,63.71,253Z" transform="translate(-40.27 -187.2)"/><path class="cls-3" d="M98.48,242.41a29.84,29.84,0,0,0-2.58-5.63,28.84,28.84,0,0,0-4.65-5.85,30.79,30.79,0,0,0-5.73-4.56c-.93-.54-1.87-1.05-2.83-1.52-.71-.36-1.47-.62-2.18-1a.63.63,0,0,0-.93.18,6.18,6.18,0,0,1-2.09,2A12.4,12.4,0,0,1,72,227.13a1,1,0,0,0,.2-.55c0-1-1.81-1.77-4-1.77a7.92,7.92,0,0,0-2.22.29,4.6,4.6,0,0,1-.93-1.34.62.62,0,0,0-.56-.26,9.58,9.58,0,0,0-1.09.4,22.37,22.37,0,0,0-5.56,2.86,30.05,30.05,0,0,0-6,5.26,46.81,46.81,0,0,0-3.51,4.77,20.77,20.77,0,0,0-2.63,5.54,26.65,26.65,0,0,0-.95,3.92,32.66,32.66,0,0,0-.05,4,1.16,1.16,0,0,0,.78,1.24,4.77,4.77,0,0,0,1.21.3c1.13.06,2.28.09,3.42.09H95.33c.36,0,.73-.05,1.1-.05h.2v0a5.86,5.86,0,0,0,1.39,0c1.19-.27,1.56-.58,1.56-1.84A23,23,0,0,0,98.48,242.41Z" transform="translate(-40.27 -187.2)"/><path class="cls-11" d="M72.15,215c.18-1.08.33-2.16.57-3.23.18-.8.44-.83,1.16-.41a41.57,41.57,0,0,0,4.37,2.44,6.09,6.09,0,0,1,3.35,3.43,13.84,13.84,0,0,1,1,4.44,1.89,1.89,0,0,1-.16.63,3.9,3.9,0,0,1-.67-.18L75.65,219c-.84-.43-1.68-.9-2.52-1.35a1.49,1.49,0,0,1-.83-1.34c0-.42,0-.84,0-1.27Z" transform="translate(-40.27 -187.2)"/><path class="cls-12" d="M112.86,248.18a52.52,52.52,0,0,0-2.3-6.24,27.82,27.82,0,0,0-3.81-6.34c-.87-1.13-1.85-2.17-2.76-3.27a1.33,1.33,0,0,1-.14-1.74,21.13,21.13,0,0,0,1.22-2,17.07,17.07,0,0,0,1.28-6.52,17.24,17.24,0,0,0-.94-6.2,10.44,10.44,0,0,0-2.22-3.81,3.41,3.41,0,0,0-2.36-1,8.36,8.36,0,0,0-3.79.79,17.62,17.62,0,0,0-4.19,2.45,25.91,25.91,0,0,0-2.22,2,13.74,13.74,0,0,0-3.08,4.92c-.14.35-.37.66-.81.58s-.52-.45-.58-.81c0-.11,0-.22,0-.33a16.58,16.58,0,0,0-1.24-5.24,5.47,5.47,0,0,1-.44-2.85A12.3,12.3,0,0,0,83,205a7.55,7.55,0,0,1-.81-2.44c-.42-2.46-.69-4.94-1.13-7.38-.35-1.95-.86-3.87-1.31-5.8A2.64,2.64,0,0,0,77,187.2a2.86,2.86,0,0,0-2.63,2.32c-.19,1-.37,2-.61,3s-.58,1.79-.72,2.7c-.2,1.25-.23,2.52-.4,3.77a14.4,14.4,0,0,1-.52,2.25c-.23.83-.63,1.63-.78,2.47-.23,1.27-.27,2.58-.44,3.86a21.72,21.72,0,0,1-.58,3.12,11.62,11.62,0,0,0-.83,3.94,8.74,8.74,0,0,1-.61,3.92c-.3.73-.36,1.55-.62,2.3a1.43,1.43,0,0,1-.7.79c-.41.18-.69-.17-.87-.54s-.24-.52-.36-.78a16.8,16.8,0,0,0-8.89-8.62,10.29,10.29,0,0,0-4.1-.86A3.06,3.06,0,0,0,51,212.13a14.23,14.23,0,0,0-2.91,6.8,13.12,13.12,0,0,0,.38,7c.49,1.3,1,2.58,1.61,3.83a1.73,1.73,0,0,1,0,2l-.87,1.18c-.85,1.12-1.79,2.19-2.54,3.38-1.39,2.22-2.76,4.48-4,6.81a25.17,25.17,0,0,0-1.92,5,17,17,0,0,0-.49,4.44,8.09,8.09,0,0,0,.68,3.25,5.41,5.41,0,0,0,3.59,3,1.61,1.61,0,0,1,1.27,1.12,8.65,8.65,0,0,1,.41,1.78c.19,2.83.27,5.67.5,8.5.28,3.44.66,6.87,1,10.3a8.18,8.18,0,0,0,1.4,3.93,11.93,11.93,0,0,0,2.56,2.75,13.23,13.23,0,0,0,4.16,2.25A37.41,37.41,0,0,0,61,290.53a43.53,43.53,0,0,0,4.4.49c1.39.1,2.78.1,4.17.12,2.13,0,4.26.08,6.39,0s4.3-.16,6.44-.29a54.44,54.44,0,0,1,8.66-.06,16.61,16.61,0,0,0,5.62-.6,8,8,0,0,0,2.11-.82,13.61,13.61,0,0,0,5.89-6.36,25.66,25.66,0,0,0,2-7.78c.36-2.85.53-5.72.74-8.58.15-2.07.24-4.15.35-6.22a1.69,1.69,0,0,1,1.42-1.61,6.07,6.07,0,0,0,4.26-4.75A12.31,12.31,0,0,0,112.86,248.18ZM91.44,222.5a12.68,12.68,0,0,1,1-2,14,14,0,0,1,2.79-2.85,14.85,14.85,0,0,1,3.2-1.86,12,12,0,0,1,1.51-.57.6.6,0,0,1,.53.25,10.35,10.35,0,0,1,1.48,4.07c.17,1,.25,2,.36,3.05a10,10,0,0,1-1.18,4.74c-.58,1.06-.82,1.1-1.75.37a29.13,29.13,0,0,0-5.78-3.57l-1.84-.89A.52.52,0,0,1,91.44,222.5Zm-14.84-22c.15-1.14.23-2.29.35-3.44a2.62,2.62,0,0,1,.11-.4,13,13,0,0,1,.36,1.43c.19,1.23.35,2.46.51,3.7a1.36,1.36,0,0,1-.11.43c-.13-.05-.27-.08-.39-.14A1.39,1.39,0,0,1,76.6,200.47Zm-1.16,3.67a10.14,10.14,0,0,1,1.1.64c.79.57,1.59,1.15,2.33,1.79a4,4,0,0,1,1.32,2.82c.07.68.09,1.36.1,2.05,0,.48-.18.59-.6.36-1-.58-2-1.19-3-1.79a1.82,1.82,0,0,0-.23-.15,2.4,2.4,0,0,1-1.59-2.58,7.89,7.89,0,0,1,.59-3.14Zm-2,11.68a.64.64,0,0,1,0-.2s0,0,0-.06a.86.86,0,0,1,0-.16h0c.15-.92.28-1.85.47-2.76.14-.68.36-.71,1-.35a33.1,33.1,0,0,0,3.59,2.08,5.12,5.12,0,0,1,2.76,2.93,12.61,12.61,0,0,1,.78,3.79,1.88,1.88,0,0,1-.14.54,2.57,2.57,0,0,1-.54-.16c-1.67-.88-3.33-1.78-5-2.68-.7-.37-1.38-.76-2.07-1.15a1.28,1.28,0,0,1-.64-.8.9.9,0,0,1-.08-.28,1.46,1.46,0,0,1-.11-.74Zm-.9,4.66c.13-.39.38-.33.64-.19.56.29,1.11.6,1.66.9l4.89,2.64c.4.22.79.47,1.18.71l0,.2a7.82,7.82,0,0,1-1.13.29,17.93,17.93,0,0,1-5.12,0,6.43,6.43,0,0,1-1.85-.68,1.31,1.31,0,0,1-.55-.86A6.16,6.16,0,0,1,72.51,220.48Zm-20.5.86a25.47,25.47,0,0,1,.72-3.86,12.42,12.42,0,0,1,1-2.3c.07-.14.27-.24.38-.34a13.2,13.2,0,0,1,1.29.48,16.51,16.51,0,0,1,5.86,4.51,17,17,0,0,1,1.46,2.56c.16.29,0,.46-.29.58-.73.34-1.49.65-2.19,1.05-1.54.86-3.06,1.75-4.57,2.65-.51.32-1,.66-1.46,1s-.58.18-.79-.15a9.27,9.27,0,0,1-1.45-6.2Zm14.16,65.45c-2.33,0-4.67.2-7-.34a11.19,11.19,0,0,1-4-1.77,8.25,8.25,0,0,1-2.64-2.75,9.51,9.51,0,0,1-1.36-3.83c-.16-2.21-.4-4.42-.58-6.63-.17-2-.31-4-.47-6-.12-1.62-.25-3.24-.37-4.86-.07-.92,0-1,.88-1h14.2c.63,0,.8.14.82.67.14,3.66.26,7.33.42,11,.14,3.28.35,6.56.48,9.85.05,1.09-.06,2.19,0,3.28a15.19,15.19,0,0,0,.19,1.77c0,.41-.1.61-.54.6ZM86.1,260.54c-.16,4.47-.31,8.93-.49,13.39a68.36,68.36,0,0,1-.45,7.72c-.24,1.53-.25,3-.36,4.56,0,.43-.21.59-.65.59H70.22c-.62,0-.75-.14-.78-.77,0-1.08,0-2.17-.13-3.25s-.29-2.17-.34-3.26c-.1-2.08-.1-4.16-.17-6.24-.06-1.78-.15-3.57-.22-5.35-.1-2.47-.21-4.94-.31-7.42,0-.71.11-.86.84-.86H85.27c.76,0,.86.12.83.89Zm17.51,0c-.13,1.68-.25,3.35-.38,5s-.25,3.59-.42,5.38-.4,3.33-.57,5c-.11,1.05-.12,2.12-.26,3.18a7.85,7.85,0,0,1-4.36,6,16.1,16.1,0,0,1-4.44,1.42,21.9,21.9,0,0,1-4.85.31c-.51,0-.7-.19-.67-.71s0-1.06,0-1.59c0-.69.08-1.39.06-2.09a.84.84,0,0,1,0-.27c0-2,0-3.93,0-5.89.16-5,.39-10,.64-14.94.1-2.06,0-1.69,1.81-1.72a22.25,22.25,0,0,1,2.45,0h.18l.67.07c.62,0,1.23,0,1.84.06a54.84,54.84,0,0,1,6.15.12c.51,0,1,0,1.52,0s.58.23.55.64Zm3.62-5.25a2.85,2.85,0,0,1-.77.05h-.32a2.42,2.42,0,0,1-.71.08H51c-1.34,0-2.68,0-4-.09a6.36,6.36,0,0,1-1.41-.31,1.22,1.22,0,0,1-.92-1.3,30.19,30.19,0,0,1,.06-4.15,25.74,25.74,0,0,1,1.11-4.11,21,21,0,0,1,3.08-5.81,49.28,49.28,0,0,1,4.12-5,34.17,34.17,0,0,1,7-5.51,27,27,0,0,1,6.52-3,12.65,12.65,0,0,1,1.28-.41.75.75,0,0,1,.65.26,5.44,5.44,0,0,0,3.3,2.63,16,16,0,0,0,7.3.8,14.84,14.84,0,0,0,4.08-1,6.91,6.91,0,0,0,2.45-2.07.79.79,0,0,1,1.09-.19c.84.37,1.72.64,2.56,1,1.12.5,2.22,1,3.31,1.6a35.71,35.71,0,0,1,6.73,4.78,31.74,31.74,0,0,1,5.44,6.13,29.71,29.71,0,0,1,3,5.91,21.58,21.58,0,0,1,1.3,7.83c0,1.33-.43,1.65-1.84,1.94Z" transform="translate(-40.27 -187.2)"/><path class="cls-11" d="M102.29,222.56a9.94,9.94,0,0,1-1.18,4.74c-.58,1.06-.82,1.1-1.75.37a29.13,29.13,0,0,0-5.78-3.57l-1.84-.89a.51.51,0,0,1-.3-.71,12.68,12.68,0,0,1,1-2,13.69,13.69,0,0,1,2.79-2.85,14.85,14.85,0,0,1,3.2-1.86,11.43,11.43,0,0,1,1.51-.57.61.61,0,0,1,.53.25,10.35,10.35,0,0,1,1.48,4.07C102.1,220.51,102.18,221.54,102.29,222.56Z" transform="translate(-40.27 -187.2)"/><path class="cls-11" d="M54.15,214.84a13.2,13.2,0,0,1,1.29.48,16.37,16.37,0,0,1,5.86,4.5,16.57,16.57,0,0,1,1.46,2.57c.16.29,0,.46-.29.58-.73.34-1.49.65-2.19,1q-2.31,1.31-4.57,2.66a14.68,14.68,0,0,0-1.46,1c-.35.27-.58.18-.79-.15a9.27,9.27,0,0,1-1.45-6.2,25.47,25.47,0,0,1,.72-3.86,12.42,12.42,0,0,1,1-2.3C53.84,215,54,214.94,54.15,214.84Z" transform="translate(-40.27 -187.2)"/><path class="cls-11" d="M75.44,204.14a10.14,10.14,0,0,1,1.1.64c.79.57,1.59,1.15,2.33,1.79a4,4,0,0,1,1.32,2.82c.07.68.09,1.36.1,2.05,0,.48-.18.59-.6.36-1-.58-2-1.19-3-1.79a1.82,1.82,0,0,0-.23-.15,2.4,2.4,0,0,1-1.59-2.58A7.89,7.89,0,0,1,75.44,204.14Z" transform="translate(-40.27 -187.2)"/><path class="cls-11" d="M80.86,224.74a7.5,7.5,0,0,1-1.13.29,17.93,17.93,0,0,1-5.12,0,6.43,6.43,0,0,1-1.85-.68,1.31,1.31,0,0,1-.55-.86,6.29,6.29,0,0,1,.3-3c.14-.38.38-.33.64-.19.56.29,1.11.6,1.67.9l4.88,2.64c.4.22.79.48,1.18.71Z" transform="translate(-40.27 -187.2)"/><path class="cls-11" d="M77.06,196.63a13,13,0,0,1,.36,1.43c.19,1.23.35,2.46.51,3.7a1.36,1.36,0,0,1-.11.43c-.13-.05-.27-.08-.39-.14a1.38,1.38,0,0,1-.83-1.58c.15-1.15.23-2.3.35-3.45A2.85,2.85,0,0,1,77.06,196.63Z" transform="translate(-40.27 -187.2)"/><path class="cls-13" d="M83.8,238a3.67,3.67,0,0,0-4.9-1.41c-1.34.74-2.64,1.57-3.91,2.42a29.25,29.25,0,0,0-2.82,2.16,3.86,3.86,0,0,0-1.3,2.56v0a.66.66,0,0,1,0,.14c.14.53.3,1,.49,1.55a3.72,3.72,0,0,0,4.4,2,10.35,10.35,0,0,0,2-1c1.65-1,3.23-2.18,4.89-3.19A3.82,3.82,0,0,0,83.8,238Zm-2.45,3c-.94.64-1.9,1.23-2.85,1.84s-1.92,1.26-2.89,1.87a5,5,0,0,1-.79.31,1.21,1.21,0,0,1-1.13-.85,1.12,1.12,0,0,1,.33-1.23,4.87,4.87,0,0,1,1-.8c1.1-.72,2.2-1.42,3.31-2.12.61-.38,1.24-.74,1.86-1.09a1,1,0,0,1,1.39.46A1.23,1.23,0,0,1,81.35,241Z" transform="translate(-40.27 -187.2)"/><path class="cls-13" d="M94.09,251.2a3.92,3.92,0,0,1-4-4.79,11.4,11.4,0,0,1,.72-1.74c.67-1.58,1.35-3.15,2-4.74A4.61,4.61,0,0,1,96.53,237a2.75,2.75,0,0,1,2.06.47,4.19,4.19,0,0,1,1.4,5.9c-.74,1.33-1.26,2.78-1.9,4.17A7.61,7.61,0,0,1,96,250.49,2.5,2.5,0,0,1,94.09,251.2ZM92.51,247c0,1,.38,1.56,1,1.72a1.47,1.47,0,0,0,1.7-.84c.29-.6.55-1.21.81-1.82.61-1.42,1.19-2.85,1.82-4.27a1.48,1.48,0,0,0-.58-2,1.45,1.45,0,0,0-2.05.78c-.66,1.52-1.33,3-2,4.56-.31.7-.57,1.42-.76,1.91Z" transform="translate(-40.27 -187.2)"/><path class="cls-13" d="M63.71,253A4.07,4.07,0,0,1,61,251.63c-1.52-1.59-3-3.2-4.58-4.75a3.87,3.87,0,0,1-1-4.08,3.64,3.64,0,0,1,2.9-2.46A3.58,3.58,0,0,1,62,241.47c1.4,1.37,2.82,2.73,4.18,4.15a5.8,5.8,0,0,1,1.57,2.62,3.13,3.13,0,0,1-.41,2.63,6.5,6.5,0,0,1-1.12,1.41A4.34,4.34,0,0,1,63.71,253Zm1.78-4.12a2.19,2.19,0,0,0-.28-.6c-.59-.67-1.2-1.34-1.84-2-1.13-1.12-2.25-2.24-3.43-3.29a1.28,1.28,0,0,0-1.93.14,1.43,1.43,0,0,0,.08,1.92q.39.45.81.87c1.31,1.32,2.62,2.64,3.94,3.94a1.35,1.35,0,0,0,1.58.38A2,2,0,0,0,65.49,248.86Z" transform="translate(-40.27 -187.2)"/><path class="cls-11" d="M74.82,245a1.21,1.21,0,0,1-1.13-.85,1.13,1.13,0,0,1,.32-1.23,4.87,4.87,0,0,1,1-.8c1.1-.72,2.2-1.42,3.32-2.12.61-.38,1.23-.74,1.86-1.09a1,1,0,0,1,1.39.46,1.22,1.22,0,0,1-.25,1.61c-.93.64-1.89,1.23-2.84,1.84s-1.93,1.26-2.9,1.87A5.28,5.28,0,0,1,74.82,245Z" transform="translate(-40.27 -187.2)"/><path class="cls-8" d="M92.51,247c.19-.49.45-1.21.75-1.92.65-1.52,1.32-3,2-4.56a1.45,1.45,0,0,1,2.05-.78,1.49,1.49,0,0,1,.58,2c-.63,1.41-1.21,2.84-1.82,4.26q-.39.93-.81,1.83a1.48,1.48,0,0,1-1.7.84C92.89,248.55,92.49,248,92.51,247Z" transform="translate(-40.27 -187.2)"/><path class="cls-8" d="M65.49,248.86a2,2,0,0,1-1.07,1.4,1.38,1.38,0,0,1-1.58-.38q-2-2-3.94-3.95-.42-.42-.81-.87a1.42,1.42,0,0,1-.08-1.91,1.28,1.28,0,0,1,1.93-.15c1.18,1.05,2.3,2.17,3.43,3.29.64.63,1.25,1.3,1.84,2A2.19,2.19,0,0,1,65.49,248.86Z" transform="translate(-40.27 -187.2)"/><path class="cls-11" d="M59.39,232.52a2.07,2.07,0,0,0-.61-.44,2.34,2.34,0,0,0-.53-.08h0a.57.57,0,0,1-.18,0l-.29,0a.61.61,0,0,1-.18,0h0l-.15.05-.23.1a2.19,2.19,0,0,0-.29.16l0,0-.23.17c-.19.14-.39.26-.59.38l-.07.07-.08.07-.11.1-.1.09a.49.49,0,0,1-.2.18l-.07,0c-.67.58-1.3,1.19-2,1.78a2.8,2.8,0,0,1-.52.57,1.07,1.07,0,0,1-.14.16h0a.53.53,0,0,1-.14.12l-.08.08c-.24.3-.49.58-.72.89a1.56,1.56,0,0,0,.48,2.47,1.67,1.67,0,0,0,1.71.08,5,5,0,0,0,1.13-1.07A16.24,16.24,0,0,1,59,235.25,2,2,0,0,0,59.39,232.52Z" transform="translate(-40.27 -187.2)"/><path class="cls-11" d="M64.68,229.37a1.1,1.1,0,0,0-.59-.55,2.91,2.91,0,0,0-3.37.7l-.19.32a5.29,5.29,0,0,0-.15,1c0,.24-.05.5.1.72a2,2,0,0,0,1.87,1A4,4,0,0,0,64,232a1.08,1.08,0,0,0,.59-.54A2.1,2.1,0,0,0,64.68,229.37Z" transform="translate(-40.27 -187.2)"/></g></g></svg>